<?xml version="1.0" encoding="UTF-8" standalone="no"?><svg xmlns="http://www.w3.org/2000/svg" xmlns:xlink="http://www.w3.org/1999/xlink"><symbol id="icon-flowers" width="726" height="419" viewBox="0 0 726 419" fill="none" xmlns="http://www.w3.org/2000/svg"><path d="M226.702 318.287C226.702 300.83 230.742 297.674 215.745 282.665C211.007 277.923 209.946 272.684 209.249 274.942C208.551 277.21 205.603 284.979 207.895 293.502C210.192 302.041 212.094 306.1 216.427 310.169C220.759 314.228 226.702 318.287 226.702 318.287Z" stroke="#0D62B1" stroke-width="3" stroke-miterlimit="10" stroke-linecap="round" stroke-linejoin="round"></path><path d="M226.844 317.487C226.844 317.487 223.183 311.652 219.666 302.852C216.149 294.036 215.61 290.254 213.985 287.812C212.36 285.369 210.062 277.79 210.062 277.79" stroke="#0D62B1" stroke-width="3" stroke-miterlimit="10" stroke-linecap="round" stroke-linejoin="round"></path><path d="M214.613 288.92L216.485 283.409" stroke="#0D62B1" stroke-width="3" stroke-miterlimit="10" stroke-linecap="round" stroke-linejoin="round"></path><path d="M218.186 301.225L223.518 292.661" stroke="#0D62B1" stroke-width="3" stroke-miterlimit="10" stroke-linecap="round" stroke-linejoin="round"></path><path d="M214.669 292.558L207.152 288.222" stroke="#0D62B1" stroke-width="3" stroke-miterlimit="10" stroke-linecap="round" stroke-linejoin="round"></path><path d="M219.262 301.794L210.191 298.782" stroke="#0D62B1" stroke-width="3" stroke-miterlimit="10" stroke-linecap="round" stroke-linejoin="round"></path><path d="M70.7812 333.573C70.7812 333.573 77.8876 334.548 79.4309 335.246C80.9588 335.944 83.8916 337.268 83.8916 337.268" stroke="#0D62B1" stroke-width="3" stroke-miterlimit="10" stroke-linecap="round" stroke-linejoin="round"></path><path d="M70.0703 318.708C70.0703 318.708 70.783 322.11 70.783 325.543C70.783 328.96 71.1317 332.875 71.1317 332.875" stroke="#0D62B1" stroke-width="3" stroke-miterlimit="10" stroke-linecap="round" stroke-linejoin="round"></path><path fill-rule="evenodd" clip-rule="evenodd" d="M45.8683 324.978C45.8683 324.978 55.4152 322.638 57.9737 319.888C60.5322 317.137 64.7776 312.555 62.901 307.188C61.0244 301.82 58.5992 298.069 56.9688 296.92C55.3537 295.755 53.7284 294.359 53.7284 294.359L52.9593 294.795C52.9593 294.795 51.3032 291.829 49.924 290.269C48.5601 288.699 47.3347 287.899 45.9401 288.992C44.5301 290.085 41.2589 292.291 40.2591 293.456C39.2542 294.605 37.757 295.914 37.757 295.914C37.757 295.914 36.1419 295.319 35.7676 295.724C35.3933 296.13 29.4765 299.973 27.8153 304.786C26.1592 309.584 24.9799 313.864 26.5642 317.456C28.1639 321.048 32.4657 323.665 37.234 324.814C42.0024 325.984 45.8683 324.978 45.8683 324.978Z" fill="#FFA095"></path><path d="M78.5148 386.986C77.4688 386.217 66.1017 381.881 57.5853 369.242C49.0844 356.619 44.2699 351.087 43.8495 343C43.429 334.897 44.4032 325.399 44.4032 325.399" stroke="#0D62B1" stroke-width="3" stroke-miterlimit="10" stroke-linecap="round" stroke-linejoin="round"></path><path d="M52.7045 362.114C52.7045 362.114 52.2687 345.345 54.3298 338.813C56.7858 331.018 67.9478 309.738 82.8476 316.47C88.3542 318.959 95.8246 323.931 86.8878 334.682C77.9664 345.447 73.0084 347.946 66.4506 353.052C59.898 358.143 54.8682 364.357 54.8682 364.357" stroke="#0D62B1" stroke-width="3" stroke-miterlimit="10" stroke-linecap="round" stroke-linejoin="round"></path><path d="M55.1445 362.258C55.1445 362.258 59.0566 343.826 65.8246 337.412C72.5823 330.982 81.3037 320.016 81.7242 319.667C82.1446 319.318 84.1391 317.399 84.1391 317.399" stroke="#0D62B1" stroke-width="3" stroke-miterlimit="10" stroke-linecap="round" stroke-linejoin="round"></path><path d="M57.3782 333.286C57.3782 333.286 56.5373 334.333 58.4241 339.09C60.3161 343.831 61.2851 345.997 61.2851 345.997" stroke="#0D62B1" stroke-width="3" stroke-miterlimit="10" stroke-linecap="round" stroke-linejoin="round"></path><path d="M58.502 348.296C58.502 348.296 59.6197 347.598 63.5164 348.716C67.4285 349.835 69.4486 350.184 69.4486 350.184" stroke="#0D62B1" stroke-width="3" stroke-miterlimit="10" stroke-linecap="round" stroke-linejoin="round"></path><path d="M53.9638 366.594C47.8573 358.143 36.0595 352.657 25.6204 351.785C16.2478 351.015 5.43445 353.586 2.89134 360.513C-2.71786 375.83 19.6062 377.036 29.1274 374.548C40.3612 371.623 41.3354 369.037 46.0166 368.133C50.6824 367.22 53.9638 366.594 53.9638 366.594Z" stroke="#0D62B1" stroke-width="3" stroke-miterlimit="10" stroke-linecap="round" stroke-linejoin="round"></path><path d="M2.26758 364.008C3.4571 363.802 15.9419 362.612 26.9604 363.31C37.9891 364.008 46.7721 364.3 47.4694 364.357C48.1667 364.428 53.6169 365.275 53.6169 365.275" stroke="#0D62B1" stroke-width="3" stroke-miterlimit="10" stroke-linecap="round" stroke-linejoin="round"></path><path d="M16.4863 352.832C16.4863 352.832 18.5936 355.844 20.6855 357.937C22.7775 360.031 26.064 362.607 26.064 362.607" stroke="#0D62B1" stroke-width="3" stroke-miterlimit="10" stroke-linecap="round" stroke-linejoin="round"></path><path d="M32.4844 353.925C32.4844 353.925 34.7814 358.363 36.0324 359.887C37.2989 361.427 40.2932 364.033 40.2932 364.033" stroke="#0D62B1" stroke-width="3" stroke-miterlimit="10" stroke-linecap="round" stroke-linejoin="round"></path><path d="M14.6953 374.799C14.6953 374.799 18.3151 371.761 21.6735 368.836C25.0165 365.896 29.0003 363.033 29.0003 363.033" stroke="#0D62B1" stroke-width="3" stroke-miterlimit="10" stroke-linecap="round" stroke-linejoin="round"></path><path d="M33.3828 371.977C33.3828 371.977 35.8952 368.836 37.7 367.441C39.515 366.045 41.6838 364.706 41.6838 364.706" stroke="#0D62B1" stroke-width="3" stroke-miterlimit="10" stroke-linecap="round" stroke-linejoin="round"></path><path d="M52.9645 294.795C52.2979 295.462 48.0936 299.742 46.6836 302.477C45.289 305.212 42.4844 311.118 42.4844 311.118" stroke="#F65B47" stroke-width="3" stroke-miterlimit="10" stroke-linecap="round" stroke-linejoin="round"></path><path d="M44.4602 324.455C44.4602 323.931 44.6192 315.901 41.5992 308.82C38.5741 301.738 35.7695 295.319 35.7695 295.319" stroke="#F65B47" stroke-width="3" stroke-miterlimit="10" stroke-linecap="round" stroke-linejoin="round"></path><path d="M48.023 297.926C47.6025 294.057 43.3008 289.053 43.3008 289.053" stroke="#F65B47" stroke-width="3" stroke-miterlimit="10" stroke-linecap="round" stroke-linejoin="round"></path><path d="M49.1257 289.777L45.7109 292.353" stroke="#F65B47" stroke-width="3" stroke-miterlimit="10" stroke-linecap="round" stroke-linejoin="round"></path><path fill-rule="evenodd" clip-rule="evenodd" d="M167.749 267.538C172.384 262.068 176.963 255.099 177.096 247.525C177.239 239.946 177.096 235.436 174.568 232.716C172.056 229.981 168.436 228.267 168.436 228.267C168.436 228.267 164.816 218.651 157.797 215.438C150.762 212.226 137.185 207.993 128.659 214.145C120.142 220.283 115.159 224.039 113.923 226.974C112.703 229.914 111.744 231.89 111.744 231.89C111.744 231.89 111.134 229.298 108.883 232.033C97.0648 246.36 106.484 265.228 120.004 274.26C135.934 284.907 152.244 285.795 167.749 267.538Z" fill="#FFA095"></path><path d="M162.954 362.858C162.954 361.504 154.161 350.132 151.736 338.741C149.295 327.364 148.352 325.066 145.645 310.025C142.927 295.001 142.261 295.801 143.332 290.521C144.425 285.241 144.553 280.643 144.553 280.643" stroke="#0D62B1" stroke-width="3" stroke-miterlimit="10" stroke-linecap="round" stroke-linejoin="round"></path><path d="M147.941 320.078C148.582 303.657 167.404 284.05 174.465 295.406C178.925 302.574 178.52 308.393 173.244 314.633C167.968 320.858 160.395 326.692 157.55 328.308C154.699 329.935 150.92 331.695 150.92 331.695C150.92 331.695 150.238 331.156 156.601 320.042C162.954 308.943 166.487 304.335 167.835 302.574C169.189 300.814 174.465 295.406 174.465 295.406" stroke="#0D62B1" stroke-width="3" stroke-miterlimit="10" stroke-linecap="round" stroke-linejoin="round"></path><path d="M161.854 310.651C161.854 310.651 160.664 307.916 160.182 306.203C159.69 304.489 158.219 300.106 158.219 300.106" stroke="#0D62B1" stroke-width="3" stroke-miterlimit="10" stroke-linecap="round" stroke-linejoin="round"></path><path d="M155.833 321.982C155.802 321.751 154.567 320.309 153.669 317.969C152.752 315.614 151.039 310.113 151.039 310.113" stroke="#0D62B1" stroke-width="3" stroke-miterlimit="10" stroke-linecap="round" stroke-linejoin="round"></path><path d="M156.75 321.109C156.75 321.109 160.354 322.751 162.518 322.751C164.682 322.751 167.548 321.879 167.548 321.879" stroke="#0D62B1" stroke-width="3" stroke-miterlimit="10" stroke-linecap="round" stroke-linejoin="round"></path><path d="M162.305 310.564C162.305 310.564 167.001 309.635 168.293 309.635C169.585 309.635 176.097 309.563 176.097 309.563" stroke="#0D62B1" stroke-width="3" stroke-miterlimit="10" stroke-linecap="round" stroke-linejoin="round"></path><path d="M148.494 330.813C148.377 330.464 147.084 322.756 141.983 317.574C136.866 312.396 129.729 305.53 124.427 305.007C119.11 304.483 113.573 303.914 112.147 306.52C101.555 325.635 126.868 330.813 140.127 330.012C146.167 329.632 148.494 330.813 148.494 330.813Z" stroke="#0D62B1" stroke-width="3" stroke-miterlimit="10" stroke-linecap="round" stroke-linejoin="round"></path><path d="M146.358 329.694C146.112 329.273 142.359 326.538 136.985 322.9C131.592 319.262 127.362 318.143 123.368 314.495C119.384 310.856 113.18 305.479 113.18 305.479" stroke="#0D62B1" stroke-width="3" stroke-miterlimit="10" stroke-linecap="round" stroke-linejoin="round"></path><path d="M128.406 317.502C128.55 316.455 128.581 314.561 128.16 312.468C127.74 310.359 127.709 306.751 127.709 306.751" stroke="#0D62B1" stroke-width="3" stroke-miterlimit="10" stroke-linecap="round" stroke-linejoin="round"></path><path d="M136.216 322.392C136.216 322.392 136.216 322.351 136.216 319.016C136.216 315.685 136.098 312.919 136.098 312.919" stroke="#0D62B1" stroke-width="3" stroke-miterlimit="10" stroke-linecap="round" stroke-linejoin="round"></path><path d="M137.086 324.296C136.865 324.296 136.865 325.137 135.122 325.882C133.379 326.61 133.158 326.189 130.923 326.754C128.682 327.308 126.129 328.427 126.129 328.427" stroke="#0D62B1" stroke-width="3" stroke-miterlimit="10" stroke-linecap="round" stroke-linejoin="round"></path><path d="M112.451 319.857C112.451 319.857 113.964 319.287 116.825 319.215C119.701 319.159 122.742 318.836 124.208 318.764C125.674 318.692 128.817 318.256 128.817 318.256" stroke="#0D62B1" stroke-width="3" stroke-miterlimit="10" stroke-linecap="round" stroke-linejoin="round"></path><path d="M144.556 280.643C144.556 280.643 142.346 264.192 135.952 254.883C129.543 245.575 119.458 236.98 118.571 236.277C117.699 235.564 109.809 231.71 109.809 231.71" stroke="#F65B47" stroke-width="3" stroke-miterlimit="10" stroke-linecap="round" stroke-linejoin="round"></path><path d="M138.41 256.818C138.584 255.771 143.845 242.594 153.059 237.242C162.272 231.89 170.599 228.631 170.599 228.631" stroke="#F65B47" stroke-width="3" stroke-miterlimit="10" stroke-linecap="round" stroke-linejoin="round"></path><path d="M116.461 221.966C116.461 221.966 131.212 223.361 139.277 229.165C147.342 234.953 150.034 239.361 150.034 239.361" stroke="#F65B47" stroke-width="3" stroke-miterlimit="10" stroke-linecap="round" stroke-linejoin="round"></path><path d="M156.995 215.726C156.995 215.726 146.126 220.554 143.495 223.797C140.865 227.056 139.496 229.324 139.496 229.324" stroke="#F65B47" stroke-width="3" stroke-miterlimit="10" stroke-linecap="round" stroke-linejoin="round"></path><path d="M145.066 221.252C145.066 221.252 146.999 219.143 142.436 216.075C137.873 213.006 135.504 211.595 135.504 211.595" stroke="#F65B47" stroke-width="3" stroke-miterlimit="10" stroke-linecap="round" stroke-linejoin="round"></path><path fill-rule="evenodd" clip-rule="evenodd" d="M35.4515 230.498C35.4515 230.498 50.4576 232.939 57.2335 239.932C64.0007 246.937 65.6485 253.107 65.722 255.094C65.7914 257.06 65.331 258.118 63.1602 257.435C60.9837 256.759 55.4143 256.101 50.4466 252.966C45.4788 249.831 40.2158 245.117 37.9622 241.421C35.7215 237.716 33.3746 231.89 33.7073 231.483C34.0216 231.076 35.4515 230.498 35.4515 230.498Z" fill="#FFA095"></path><path fill-rule="evenodd" clip-rule="evenodd" d="M201.662 334.856C204.015 334.856 205.933 332.937 205.933 330.582C205.933 328.227 204.015 326.307 201.662 326.307C199.308 326.307 197.391 328.227 197.391 330.582C197.386 332.937 199.303 334.856 201.662 334.856Z" fill="#F65B47"></path><path fill-rule="evenodd" clip-rule="evenodd" d="M172.883 151.989C172.883 151.989 184.439 161.866 186.603 171.365C188.756 180.863 186.967 187 186.008 188.734C185.049 190.464 184.091 191.121 182.594 189.417C181.096 187.703 176.677 184.255 174.046 178.99C171.432 173.725 169.365 166.962 169.365 162.626C169.381 158.29 170.38 152.096 170.878 151.922C171.355 151.727 172.883 151.989 172.883 151.989Z" fill="#F65B47"></path><path fill-rule="evenodd" clip-rule="evenodd" d="M233.271 165.549C235.624 165.549 237.542 163.63 237.542 161.274C237.542 158.919 235.624 157 233.271 157C230.918 157 229 158.919 229 161.274C229 163.63 230.918 165.549 233.271 165.549Z" fill="#F65B47"></path><path d="M210.5 12.0033V12C210.5 6.2162 215.216 1.5 221 1.5C226.784 1.5 231.5 6.2162 231.5 12C231.5 17.7838 226.784 22.5 221 22.5C215.2 22.5 210.487 17.7828 210.5 12.0033Z" stroke="#FFA095" stroke-width="3"></path><path d="M605.225 358.476C605.225 358.476 617.622 358.42 623.739 358.65C629.856 358.881 638.885 359.117 644.874 359.579C650.878 360.046 656.123 359.697 657.866 359.348C659.609 358.999 662.286 358.009 662.286 358.009" stroke="#0D62B1" stroke-width="3" stroke-miterlimit="10" stroke-linecap="round" stroke-linejoin="round"></path><path d="M578.887 323.567C580.994 323.973 590.5 327.293 590.5 327.293L594.089 321.284" stroke="#0D62B1" stroke-width="3" stroke-miterlimit="10" stroke-linecap="round" stroke-linejoin="round"></path><path fill-rule="evenodd" clip-rule="evenodd" d="M608.072 252.005C608.205 252.107 605.036 249.665 603.801 250.737C602.55 251.815 596.9 269.21 597.407 275.594C597.915 281.993 602.278 298.079 611.158 303.344C620.039 308.609 626.376 310.426 632.888 310.605C639.399 310.764 657.278 306.911 663.949 297.571C670.634 288.232 674.982 282.562 673.86 277.918C672.726 273.279 670.46 272.084 670.46 272.084C670.46 272.084 669.558 261.493 663.046 255.545C650.474 244.056 635.913 236.328 618.747 243.543C610.251 247.114 607.938 251.902 608.072 252.005Z" fill="#FFA095"></path><path d="M588.32 372.849C588.32 372.849 607.737 351.277 612.388 338.346C617.053 325.415 622.458 308.717 622.458 308.717" stroke="#0D62B1" stroke-width="3" stroke-miterlimit="10" stroke-linecap="round" stroke-linejoin="round"></path><path d="M603.872 350.84C603.872 350.84 605.836 342.245 601.662 333.009C597.504 323.772 592.956 317.517 588.788 314.52C584.63 311.539 581.768 309.312 581.768 309.312C581.768 309.312 577.959 310.851 578.077 317.907C578.195 324.963 577.728 335.975 586.87 343.143C596.012 350.312 603.467 353.108 603.467 353.108" stroke="#0D62B1" stroke-width="3" stroke-miterlimit="10" stroke-linecap="round" stroke-linejoin="round"></path><path d="M581.984 311.437C582.738 312.832 587.506 320.006 589.557 325.081C591.593 330.14 593.915 333.707 596.782 339.115C599.632 344.539 603.642 351.651 603.642 351.651" stroke="#0D62B1" stroke-width="3" stroke-miterlimit="10" stroke-linecap="round" stroke-linejoin="round"></path><path d="M599.973 330.782L597.025 339.598C597.025 339.598 595.661 341.286 591.123 340.177C586.575 339.059 581.633 335.913 581.633 335.913" stroke="#0D62B1" stroke-width="3" stroke-miterlimit="10" stroke-linecap="round" stroke-linejoin="round"></path><path d="M601.312 358.363C601.312 358.363 607.547 353.345 612.792 352.067C618.022 350.789 629.507 347.223 638.239 349.388C646.976 351.544 652.031 354.099 655.42 355.325C658.794 356.547 662.993 357.783 662.993 357.783C662.993 357.783 662.399 363.951 656.702 365.48C643.259 369.042 622.765 374.075 610.049 363.895C606.85 361.334 602.533 358.368 602.533 358.368" stroke="#0D62B1" stroke-width="3" stroke-miterlimit="10" stroke-linecap="round" stroke-linejoin="round"></path><path d="M649.423 353.458C649.423 353.458 650.643 354.037 646.516 356.367C642.373 358.707 638.887 360.164 638.887 360.164C638.887 360.164 645.573 363.192 645.691 363.715C645.809 364.239 649.192 367.045 649.192 367.045" stroke="#0D62B1" stroke-width="3" stroke-miterlimit="10" stroke-linecap="round" stroke-linejoin="round"></path><path d="M630.553 349.327C630.553 349.327 630.728 351.538 626.759 353.575C622.806 355.613 619.709 357.953 619.709 357.953C619.709 357.953 621.873 361.037 623.155 363.423C624.431 365.824 625.944 368.734 625.944 368.734" stroke="#0D62B1" stroke-width="3" stroke-miterlimit="10" stroke-linecap="round" stroke-linejoin="round"></path><path d="M626.021 309.255C626.021 309.255 627.01 289.284 621.647 276.425C616.284 263.565 606.184 251.943 606.184 251.943" stroke="#F65B47" stroke-width="3" stroke-miterlimit="10" stroke-linecap="round" stroke-linejoin="round"></path><path d="M624.887 284.035C624.887 284.035 640.484 275.804 654.466 276.051C668.432 276.297 672.544 276.297 672.544 276.297" stroke="#F65B47" stroke-width="3" stroke-miterlimit="10" stroke-linecap="round" stroke-linejoin="round"></path><path d="M641.732 277.051C641.732 277.051 640.368 268.061 638.112 263.32C635.871 258.563 628.749 245.457 628.749 245.457L624.012 241.095" stroke="#F65B47" stroke-width="3" stroke-miterlimit="10" stroke-linecap="round" stroke-linejoin="round"></path><path d="M637.633 260.846C637.633 260.846 640.309 258.968 649.461 258.706C658.619 258.445 663.936 258.239 663.936 258.239" stroke="#F65B47" stroke-width="3" stroke-miterlimit="10" stroke-linecap="round" stroke-linejoin="round"></path><path d="M633.023 252.205C633.418 252.133 635.423 250.126 641.596 249.208C647.775 248.305 654.271 247.653 654.271 247.653" stroke="#F65B47" stroke-width="3" stroke-miterlimit="10" stroke-linecap="round" stroke-linejoin="round"></path><path d="M642.718 249.049C642.718 249.049 642.836 246.735 641.206 244.539C639.591 242.327 638.488 240.89 638.488 240.89" stroke="#F65B47" stroke-width="3" stroke-miterlimit="10" stroke-linecap="round" stroke-linejoin="round"></path><path fill-rule="evenodd" clip-rule="evenodd" d="M564.786 293.533C565.094 293.374 578.984 289.172 586.08 280.356C593.376 271.309 603.697 243.702 587.941 243.702C583.957 243.702 583.757 243.035 583.757 243.035C583.757 243.035 577.579 236.913 570.908 235.718C564.222 234.527 554.952 233.855 547.743 238.104C540.55 242.368 535.884 248.531 535.884 248.531C535.884 248.531 530.752 246.771 529.301 248.736C527.85 250.701 526.511 266.465 531.741 274.757C538.468 285.431 552.886 294.113 564.786 293.533Z" fill="#FFA095"></path><path d="M542.336 364.803C542.336 364.803 554.995 342.405 558.441 330.679C561.901 318.939 564.009 291.275 564.009 291.275" stroke="#0D62B1" stroke-width="3" stroke-miterlimit="10" stroke-linecap="round" stroke-linejoin="round"></path><path d="M546.668 354.448C546.801 353.473 549.472 348.075 544.125 339.203C538.777 330.315 535.695 326.867 530.276 326.256C524.841 325.661 517.75 325.456 517.75 325.456C517.75 325.456 519.493 334.533 524.318 339.767C529.143 344.991 527.963 345.714 535.29 349.573C542.627 353.427 546.729 354.186 546.729 354.186" stroke="#0D62B1" stroke-width="3" stroke-miterlimit="10" stroke-linecap="round" stroke-linejoin="round"></path><path d="M519.457 325.517C519.457 325.517 529.209 331.408 535.736 338.71C542.263 346.012 543.919 347.875 544.688 349.214C545.457 350.553 546.636 353.304 546.636 353.304" stroke="#0D62B1" stroke-width="3" stroke-miterlimit="10" stroke-linecap="round" stroke-linejoin="round"></path><path d="M534.808 327.744C534.808 327.744 534.721 329.91 534.721 333.04C534.721 336.165 534.864 337.766 534.864 337.766" stroke="#0D62B1" stroke-width="3" stroke-miterlimit="10" stroke-linecap="round" stroke-linejoin="round"></path><path d="M522.744 337.791C522.744 337.791 527.759 337.735 529.62 337.735C531.481 337.735 533.993 337.822 533.993 337.822" stroke="#0D62B1" stroke-width="3" stroke-miterlimit="10" stroke-linecap="round" stroke-linejoin="round"></path><path d="M541.829 335.523C541.829 335.523 541.813 339.798 541.813 341.224C541.813 342.636 541.68 345.412 541.68 345.412C541.68 345.412 539.588 346.053 537.148 346.618C534.723 347.187 533.148 347.782 533.148 347.782" stroke="#0D62B1" stroke-width="3" stroke-miterlimit="10" stroke-linecap="round" stroke-linejoin="round"></path><path d="M573.41 289.721C573.077 288.279 573.077 273.403 564.048 265.475C555.024 257.531 549.368 252.472 544.298 251.235C539.242 249.999 534.879 248.634 534.879 248.634" stroke="#F65B47" stroke-width="3" stroke-miterlimit="10" stroke-linecap="round" stroke-linejoin="round"></path><path d="M559.352 261.354C559.352 261.354 560.921 254.416 572.303 249.341C583.67 244.282 584.511 243.492 584.511 243.492" stroke="#F65B47" stroke-width="3" stroke-miterlimit="10" stroke-linecap="round" stroke-linejoin="round"></path><path d="M567.288 250.706C566.837 249.921 558.654 245.046 555.47 242.517C552.286 239.987 546.836 237.252 546.836 237.252" stroke="#F65B47" stroke-width="3" stroke-miterlimit="10" stroke-linecap="round" stroke-linejoin="round"></path><path d="M570.804 235.697C563.39 238.94 561.647 240.249 561.124 241.865C560.601 243.492 560.078 245.18 560.078 245.18" stroke="#F65B47" stroke-width="3" stroke-miterlimit="10" stroke-linecap="round" stroke-linejoin="round"></path><path fill-rule="evenodd" clip-rule="evenodd" d="M721.896 219.911C721.896 219.911 717.215 227.183 711.849 229.351C706.481 231.513 702.705 231.195 701.594 230.861C700.486 230.526 700.007 230.079 700.863 229.092C701.724 228.104 703.32 225.357 706.157 223.384C708.994 221.42 712.765 219.593 715.31 219.136C717.857 218.687 721.59 218.573 721.741 218.823C721.901 219.06 721.896 219.911 721.896 219.911Z" fill="#FFA095"></path><path fill-rule="evenodd" clip-rule="evenodd" d="M546.271 203.549C548.624 203.549 550.542 201.63 550.542 199.274C550.542 196.919 548.624 195 546.271 195C543.918 195 542 196.919 542 199.274C541.995 201.63 543.912 203.549 546.271 203.549Z" fill="#FFA095"></path><path fill-rule="evenodd" clip-rule="evenodd" d="M511.271 93.5489C513.624 93.5489 515.542 91.6298 515.542 89.2745C515.542 86.9192 513.624 85 511.271 85C508.918 85 507 86.9192 507 89.2745C506.995 91.6298 508.912 93.5489 511.271 93.5489Z" fill="#FFA095"></path><path d="M563.5 144.003V144C563.5 138.216 568.216 133.5 574 133.5C579.784 133.5 584.5 138.216 584.5 144C584.5 149.784 579.784 154.5 574 154.5C568.2 154.5 563.487 149.783 563.5 144.003Z" stroke="#FFA095" stroke-width="3"></path><path fill-rule="evenodd" clip-rule="evenodd" d="M715.808 330.737C715.808 330.737 704.319 322.791 695.381 323.106C686.456 323.412 681.424 326.456 680.119 327.72C678.805 328.976 678.443 329.974 680.31 330.9C682.186 331.839 686.293 334.939 691.563 336.035C696.851 337.132 703.349 337.365 707.19 336.348C711.043 335.322 716.303 332.973 716.353 332.499C716.381 332.021 715.808 330.737 715.808 330.737Z" fill="#F65B47"></path><path fill-rule="evenodd" clip-rule="evenodd" d="M635.481 178.428C635.481 178.428 619.62 188.334 615.26 199.491C610.911 210.646 611.969 218.446 612.826 220.721C613.683 222.996 614.712 223.968 616.856 222.176C618.983 220.371 624.985 216.976 629.142 211.042C633.286 205.126 637.019 197.273 637.804 191.995C638.59 186.733 638.495 179.008 637.94 178.701C637.38 178.39 635.481 178.428 635.481 178.428Z" fill="#F65B47"></path><path d="M724.121 397.424C706.825 395.056 704.247 390.625 687.342 403.447C682.001 407.497 676.667 407.838 678.809 408.835C680.961 409.834 688.259 413.809 697.014 412.694C705.785 411.577 710.065 410.243 714.684 406.503C719.293 402.761 724.121 397.424 724.121 397.424Z" stroke="#0D62B1" stroke-width="3" stroke-miterlimit="10" stroke-linecap="round" stroke-linejoin="round"></path><path d="M723.346 397.175C723.346 397.175 717.069 400.01 707.873 402.301C698.662 404.59 694.842 404.61 692.201 405.889C689.561 407.168 681.74 408.415 681.74 408.415" stroke="#0D62B1" stroke-width="3" stroke-miterlimit="10" stroke-linecap="round" stroke-linejoin="round"></path><path d="M693.386 405.418L688.18 402.816" stroke="#0D62B1" stroke-width="3" stroke-miterlimit="10" stroke-linecap="round" stroke-linejoin="round"></path><path d="M706.061 403.547L698.3 397.102" stroke="#0D62B1" stroke-width="3" stroke-miterlimit="10" stroke-linecap="round" stroke-linejoin="round"></path><path d="M696.997 405.856L691.682 412.715" stroke="#0D62B1" stroke-width="3" stroke-miterlimit="10" stroke-linecap="round" stroke-linejoin="round"></path><path d="M706.771 402.558L702.557 411.135" stroke="#0D62B1" stroke-width="3" stroke-miterlimit="10" stroke-linecap="round" stroke-linejoin="round"></path></symbol><symbol id="icon-fr_2" width="1600" height="896" viewBox="0 0 1600 896" fill="none" xmlns="http://www.w3.org/2000/svg"><g clip-path="url(#clip0)"><path d="M1576.9 398.659L1599 438.83L1572.58 402.152L1550 387.743L1521.66 369.84L1508.21 371.587L1500.53 351.938L1482.75 341.021L1470.74 301.287L1435.2 287.314L1396.29 288.187L1336.72 304.343H1306.38L1283.4 322.246L1278.6 331.852L1268.99 341.021V352.374L1252.18 365.474V386.433L1232.97 396.408L1252.18 421.801V445.817L1273.79 473.326V522.667L1254.1 553.232L1266.59 604.756V614.363L1281.48 642.308L1268.51 651.914L1262.27 666.324V676.366L1254.1 683.789L1273.79 700.819L1276.68 714.791L1284.84 719.158L1288.69 730.511L1281.48 750.596L1284.84 734.004L1273.79 720.904L1266.59 714.791L1268.51 704.312L1245.45 683.789L1254.1 673.31L1250.74 664.577L1256.5 651.914L1264.19 637.505L1254.1 614.363L1256.5 595.587L1245.45 549.302L1268.99 526.596L1264.19 475.509L1239.69 445.817V429.224L1220.85 408.841L1175.8 420.491L1165.23 433.154L1171.48 445.817L1148.42 475.509L1142.18 496.905L1118.16 502.144L1062.92 493.411L1048.98 502.144L975.009 493.411L959.157 502.144L921.689 500.398L858.761 511.75L850.595 527.033L866.927 551.049L923.61 566.331L925.532 609.559L937.541 625.715L921.689 636.632L932.737 625.715L921.689 609.559L915.444 568.515L865.006 560.655L815.529 595.587L798.236 620.912L771.816 636.632L764.61 673.747L714.172 721.341L709.849 758.02L693.517 732.257L664.695 723.524H697.359L716.094 692.959L742.033 673.747L744.435 655.844L758.846 629.209L789.109 598.643V587.509H673.822L664.695 576.374L642.598 568.951L615.698 576.374L601.287 587.509H587.356L572.465 600.826H541.242L530.674 629.209L516.263 642.308L510.979 652.788L500.891 657.154L498.97 670.69L506.175 680.733L473.511 716.975L482.157 739.68L475.432 748.413L473.511 761.076L468.227 743.61L451.894 739.68L470.628 725.708L460.06 720.468L468.227 707.805L494.647 676.366L482.157 655.407L464.864 645.365L430.278 642.308L414.906 624.842H392.329L372.634 642.308L327 648.858L372.634 637.942L392.329 618.292L405.779 607.376V600.826H400.976L398.574 575.501L400.976 566.331L398.574 552.359L400.976 538.386L381.761 527.906V517.427L387.526 527.906L405.779 534.456L403.378 555.852L411.063 566.331L405.779 575.501L418.749 607.376L405.779 614.799L418.749 618.292L443.728 635.322H470.628L485.52 637.942V648.858H494.647L508.097 629.209L510.979 621.349L530.674 613.053L536.918 585.981L568.142 576.374V506.074L589.758 489.918V478.565L615.698 468.522L629.148 448.873L621.462 435.774L615.698 416.998L633.952 409.575L621.462 416.998L626.746 435.774L642.598 446.253L626.746 472.016L599.366 478.565L595.042 499.088L581.592 510.441V578.557L601.287 575.501L610.414 566.331L645.48 559.782L660.852 566.331L686.792 572.881H793.141L829.94 541.006L818.891 459.789L829.94 424.858L850.595 384.25L816.009 356.741L829.94 343.641V326.175L836.184 313.076L831.861 291.68L840.027 309.583L836.184 330.542V343.641L825.136 353.684L860.202 368.53L899.592 374.207L937.06 364.6L903.915 377.7H877.015L854.438 384.25L844.35 409.575L831.861 459.789L847.713 506.511L903.915 485.552H935.139L955.794 476.382L1040.34 480.312L1056.19 469.832L1087.89 473.326L1112.39 480.312L1137.85 469.832V454.113L1163.31 427.041L1161.39 404.772L1227.49 383.638L1243.05 369.84L1244.97 352.374L1261.3 341.021V329.232L1288.33 304.343H1278.6L1265.15 275.961L1228.16 244.086L1252.18 205.661L1230.65 143.441L1208.47 146.277L1187.33 134.051L1146.02 111.782L1143.14 96.0624L1124.4 88.6394L1110.47 68.117H1094.62L1072.52 47.1579L1041.78 53.7076L1065.32 43.2281L1050.91 22.269L1053.79 0L1058.59 22.269L1068.2 37.9883H1075.89L1094.62 58.0741L1114.31 65.4971L1127.76 86.4561L1140.73 88.6394L1153.7 96.0624V105.669L1175.32 120.951L1211.35 139.29L1228.49 137.193L1228.16 136.234L1236.33 126.191L1278.6 115.275L1273.31 91.6959L1289.65 120.951L1245.45 130.994L1261.3 211.337L1236.33 244.086L1278.6 268.975L1289.65 288.187L1320.87 296.92L1380.92 279.891H1436.16L1471.72 295.651L1479.39 292.554L1534.15 243.649L1549.04 247.142L1570.66 217.887L1556.73 240.593L1581.71 246.269L1585.55 254.129L1579.3 247.142L1557.21 243.212L1549.04 253.255L1534.15 247.142L1477.72 302.218L1494.76 330.979L1511.57 342.768L1523.58 356.304L1550 381.193L1576.9 398.659Z" fill="white"></path><path d="M473.511 778.105L475.432 767.626L460.06 771.119L443.728 775.049L419.23 803.867L400.015 816.53L395.692 830.066L386.565 836.616L373.115 849.715L361.586 858.448L368.792 896L366.87 866.308L377.438 849.715L395.692 839.672L413.465 824.827L439.405 816.53L451.894 797.318L470.628 785.528L494.647 797.318L510.979 812.164L526.831 821.77L538.36 834.869V854.518L550.849 889.887L542.683 849.715V819.587L526.831 813.91V803.867L514.341 797.318L506.175 789.458L473.511 778.105Z" fill="white"></path></g><defs><clipPath><rect width="1600" height="896" fill="white"></rect></clipPath></defs></symbol><symbol id="icon-fr_1" width="1600" height="896" viewBox="0 0 1600 896" fill="none" xmlns="http://www.w3.org/2000/svg"><g clip-path="url(#clip0)"><path d="M1576.9 398.659L1599 438.83L1572.58 402.152L1550 387.743L1521.66 369.84L1508.21 371.587L1500.53 351.938L1482.75 341.021L1470.74 301.287L1435.2 287.314L1396.29 288.187L1336.72 304.343H1306.38L1283.4 322.246L1278.6 331.852L1268.99 341.021V352.374L1252.18 365.474V386.433L1232.97 396.408L1252.18 421.801V445.817L1273.8 473.326V522.667L1254.1 553.232L1266.59 604.756V614.363L1281.48 642.308L1268.51 651.914L1262.27 666.324V676.366L1254.1 683.789L1273.8 700.819L1276.68 714.791L1284.84 719.158L1288.69 730.511L1281.48 750.596L1284.84 734.004L1273.8 720.904L1266.59 714.791L1268.51 704.312L1245.45 683.789L1254.1 673.31L1250.74 664.577L1256.5 651.914L1264.19 637.505L1254.1 614.363L1256.5 595.587L1245.45 549.302L1268.99 526.596L1264.19 475.509L1239.69 445.817V429.224L1220.85 408.841L1209.43 396.476L1222.62 394.876L1223.36 387.306L1227.49 383.638L1243.05 369.84L1244.97 352.374L1261.31 341.021V329.232L1288.33 304.343H1278.6L1265.15 275.961L1228.16 244.086L1252.18 205.661L1230.65 143.441L1208.47 146.277L1187.33 134.051L1146.02 111.782L1143.14 96.0624L1124.4 88.6394L1110.47 68.117H1094.62L1072.52 47.1579L1041.78 53.7076L1065.32 43.2281L1050.91 22.269L1053.79 0L1058.59 22.269L1068.2 37.9883H1075.89L1094.62 58.0741L1114.31 65.4971L1127.77 86.4561L1140.73 88.6394L1153.7 96.0624V105.669L1175.32 120.951L1211.35 139.29L1228.49 137.193L1228.16 136.234L1236.33 126.191L1278.6 115.275L1273.31 91.6959L1289.65 120.951L1245.45 130.994L1261.31 211.337L1236.33 244.086L1278.6 268.975L1289.65 288.187L1320.87 296.92L1380.92 279.891H1436.16L1471.72 295.651L1479.39 292.554L1534.15 243.649L1549.04 247.142L1570.66 217.887L1556.73 240.593L1581.71 246.269L1585.55 254.129L1579.31 247.142L1557.21 243.212L1549.04 253.255L1534.15 247.142L1477.73 302.218L1494.76 330.979L1511.57 342.768L1523.58 356.304L1550 381.193L1576.9 398.659Z" fill="white"></path></g><defs><clipPath><rect width="1600" height="896" fill="white"></rect></clipPath></defs></symbol><symbol id="icon-fr_3" width="1600" height="896" viewBox="0 0 1600 896" fill="none" xmlns="http://www.w3.org/2000/svg"><g clip-path="url(#clip0)"><g clip-path="url(#clip1)"><path fill-rule="evenodd" clip-rule="evenodd" d="M1599 438.83L1576.9 398.659L1550 381.193L1523.58 356.304L1511.57 342.768L1494.76 330.979L1477.72 302.218L1534.15 247.142L1549.04 253.255L1557.21 243.212L1579.3 247.142L1585.55 254.129L1581.71 246.269L1556.73 240.593L1570.66 217.887L1549.04 247.142L1534.15 243.649L1479.39 292.554L1471.72 295.651L1436.16 279.891H1380.92L1320.87 296.92L1289.65 288.187L1278.6 268.975L1236.33 244.086L1261.3 211.337L1245.45 130.994L1289.65 120.951L1273.31 91.6959L1278.6 115.275L1236.33 126.191L1228.16 136.234L1228.49 137.193L1211.35 139.29L1175.32 120.951L1153.7 105.669V96.0624L1140.73 88.6394L1127.76 86.4561L1114.31 65.4971L1094.62 58.0741L1075.89 37.9883H1068.2L1058.59 22.269L1053.79 0L1050.91 22.269L1065.32 43.2281L1041.78 53.7076L1072.52 47.1579L1094.62 68.117H1110.47L1124.4 88.6394L1143.14 96.0624L1146.02 111.782L1187.33 134.051L1208.47 146.277L1230.65 143.441L1252.18 205.661L1228.16 244.086L1265.15 275.961L1278.6 304.343H1288.33L1261.3 329.232V341.021L1244.97 352.374L1243.05 369.84L1227.49 383.638L1161.39 404.772L1163.31 427.041L1137.85 454.113V469.832L1112.39 480.312L1087.89 473.326L1056.19 469.832L1040.34 480.312L955.794 476.382L935.139 485.552H903.915L847.713 506.511L831.861 459.789L844.35 409.575L854.438 384.25L877.015 377.7H903.915L937.06 364.6L899.592 374.207L860.202 368.53L825.136 353.684L836.184 343.641V330.542L840.027 309.583L831.861 291.68L836.184 313.076L829.94 326.175V343.641L816.009 356.741L850.595 384.25L829.94 424.858L818.891 459.789L829.94 541.006L793.141 572.881H686.792L660.852 566.331L645.48 559.782L610.414 566.331L601.287 575.501L581.592 578.557V510.441L595.042 499.088L599.366 478.565L626.746 472.016L642.598 446.253L626.746 435.774L621.462 416.998L633.952 409.575L615.698 416.998L621.462 435.774L629.148 448.873L615.698 468.522L589.758 478.565V489.918L568.142 506.074V576.374L536.918 585.981L530.674 613.053L510.979 621.349L508.097 629.209L494.647 648.858H485.52V637.942L470.628 635.322H443.728L418.749 618.292L405.779 614.799L418.749 607.376L405.779 575.501L411.063 566.331L403.378 555.852L405.779 534.456L387.526 527.906L381.761 517.427V527.906L400.976 538.386L398.574 552.359L400.976 566.331L398.574 575.501L400.976 600.826H405.779V607.376L392.329 618.292L372.634 637.942L327 648.858L372.634 642.308L392.329 624.842H414.906L430.278 642.308L464.864 645.365L482.157 655.407L494.647 676.366L468.227 707.805L460.06 720.468L470.628 725.708L451.894 739.68L468.227 743.61L473.511 761.076L475.432 748.413L482.157 739.68L473.511 716.975L506.175 680.733L498.97 670.69L500.891 657.154L510.979 652.788L516.263 642.308L530.674 629.209L541.242 600.826H572.465L587.357 587.509H601.287L615.698 576.374L642.598 568.951L664.695 576.374L673.822 587.509H789.109V598.643L758.846 629.209L744.435 655.844L742.033 673.747L716.094 692.959L697.359 723.524H664.695L693.517 732.257L709.849 758.02L714.172 721.341L764.61 673.747L771.816 636.632L798.236 620.912L815.529 595.587L865.006 560.655L915.444 568.515L921.689 609.559L932.737 625.715L921.689 636.632L937.541 625.715L925.532 609.559L923.61 566.331L866.927 551.049L850.595 527.033L858.761 511.75L921.689 500.398L959.157 502.144L975.009 493.411L1048.98 502.144L1062.92 493.411L1118.16 502.144L1142.18 496.905L1148.42 475.509L1171.48 445.817L1165.23 433.154L1175.8 420.491L1220.85 408.841L1239.69 429.224V445.817L1264.19 475.509L1268.99 526.596L1245.45 549.302L1256.5 595.587L1254.1 614.363L1264.19 637.505L1256.5 651.914L1255.85 653.334L1227.33 652.003L1215.36 657.335H1197.27L1164.7 669.522L1155.52 642.355L1162.75 613.157L1168.6 598.431L1181.68 594.622H1197.27L1216.47 587.005L1194.76 592.591L1171.94 589.29L1151.62 580.658L1158.02 574.818V567.201L1160.25 555.014L1155.52 544.604L1158.02 557.045L1154.4 564.662V574.818L1146.33 582.435L1166.37 598.431L1154.4 622.043L1148 642.355L1154.4 689.58L1133.08 708.115H1071.46L1056.43 704.307L1047.53 700.498L1027.21 704.307L1021.92 709.638L1010.51 711.416V671.807L1018.3 665.206L1020.81 653.273L1036.67 649.464L1045.86 634.484L1036.67 628.391L1033.61 617.473L1040.85 613.157L1030.27 617.473L1033.61 628.391L1038.07 636.008L1030.27 647.433L1015.24 653.273V659.874L1002.72 669.269V710.146L984.627 715.732L981.009 731.474L969.598 736.298L967.928 740.868L960.135 752.293H954.847V745.946L946.219 744.423H930.633L916.16 734.521L908.645 732.489L916.16 728.173L908.645 709.638L911.707 704.307L907.253 698.213L908.645 685.772L898.069 681.964L894.729 675.87V681.964L905.862 688.057L904.47 696.182L905.862 704.307L904.47 709.638L905.862 724.365H908.645V728.173L900.852 734.521L889.441 745.946L863 752.293L889.441 748.485L900.852 738.329H913.933L922.839 748.485L942.879 750.262L952.898 756.102L960.135 768.289L944.827 786.57L940.096 793.933L946.219 796.979L935.364 805.104L944.827 807.389L947.889 817.545L949.002 810.182L952.898 805.104L947.889 791.902L966.815 770.828L962.64 764.988L963.753 757.117L969.598 754.578L972.659 748.485L981.009 740.868L987.132 724.365H1005.22L1013.85 716.621H1021.92L1030.27 710.146L1045.86 705.83L1058.66 710.146L1063.95 716.621H1130.75V723.095L1113.21 740.868L1104.86 756.356L1103.47 766.766L1088.44 777.937L1077.59 795.71H1058.66L1075.36 800.788L1084.82 815.768L1087.33 794.441L1116.55 766.766L1120.73 745.184L1136.04 736.044L1146.05 721.318L1174.72 701.006L1203.95 705.576L1207.56 729.443L1213.97 738.837L1207.56 745.184L1216.75 738.837L1209.79 729.443L1208.68 704.307L1175.84 695.42L1166.37 681.456L1171.1 672.569L1207.56 665.968L1229.27 666.983L1238.46 661.905L1251.26 663.422L1250.74 664.577L1254.1 673.31L1245.45 683.789L1268.51 704.312L1266.59 714.791L1273.79 720.904L1284.84 734.004L1281.48 750.596L1288.69 730.511L1284.84 719.158L1276.68 714.791L1273.79 700.819L1254.1 683.789L1262.27 676.366V666.324L1262.92 664.804L1281.32 666.983L1289.39 661.905L1321.4 666.983L1335.31 663.937L1338.93 651.496L1352.29 634.231L1348.67 626.867L1354.8 619.504L1380.9 612.73L1391.81 624.582V634.231L1406.01 651.496L1408.79 681.202L1395.15 694.404L1401.56 721.318L1400.16 732.235L1406.01 745.692L1401.56 754.071L1398.22 761.434L1400.16 766.512L1395.15 772.605L1408.51 784.539L1407.4 790.632L1411.58 794.187L1417.98 801.804L1416.03 811.452L1420.2 799.772L1417.98 793.171L1413.25 790.632L1411.58 782.507L1400.16 772.605L1404.9 768.289V762.449L1408.51 754.071L1416.03 748.485L1407.4 732.235V726.65L1400.16 696.69L1411.58 678.917V650.226L1399.05 634.231V620.266L1387.92 605.501L1399.05 599.7V587.513L1408.79 579.896V573.295L1414.36 567.963L1417.14 562.377L1430.45 551.967H1448.04L1482.55 542.573L1505.09 542.065L1525.69 550.19L1532.65 573.295L1542.94 579.642L1547.4 591.068L1555.19 590.052L1571.61 600.462L1584.69 608.841L1600 630.168L1587.2 606.809L1571.61 596.654L1556.3 582.181L1549.35 574.31L1539.6 567.455L1529.73 550.732L1562.43 518.707L1571.05 522.261L1575.79 516.422L1588.59 518.707L1592.21 522.769L1589.98 518.199L1575.51 514.898L1583.58 501.695L1571.05 518.707L1562.43 516.675L1530.7 545.112L1526.26 546.913L1505.65 537.749H1473.64L1438.85 547.651L1420.76 542.573L1414.36 531.402L1389.87 516.929L1404.34 497.887L1395.15 451.17L1420.76 445.33L1411.3 428.319L1414.36 442.029L1389.87 448.377L1385.13 454.216L1385.33 454.774L1375.39 455.994L1354.52 445.33L1341.99 436.443V430.858L1334.48 426.541L1326.96 425.272L1319.17 413.085L1307.76 408.769L1296.91 397.089H1292.45L1286.89 387.949L1284.1 375L1282.43 387.949L1290.78 400.136L1277.14 406.23L1294.96 402.421L1307.76 414.608H1316.95L1325.02 426.541L1335.87 430.858L1337.54 439.998L1361.48 452.947L1373.72 460.056L1386.58 458.407L1399.05 494.586L1385.13 516.929L1406.57 535.464L1414.36 551.967H1419.99L1404.34 566.44V573.295L1394.88 579.896L1393.76 590.052L1384.75 598.075L1346.45 610.364L1347.56 623.313L1332.81 639.055V648.195L1318.06 654.289L1303.86 650.226L1285.49 648.195L1276.31 654.289L1267.66 653.885L1268.51 651.914L1281.48 642.308L1266.59 614.363V604.756L1254.1 553.232L1273.79 522.667V473.326L1252.18 445.817V421.801L1232.97 396.408L1252.18 386.433V365.474L1268.99 352.374V341.021L1278.6 331.852L1283.4 322.246L1306.38 304.343H1336.72L1396.29 288.187L1435.2 287.314L1470.74 301.287L1482.75 341.021L1500.53 351.938L1508.21 371.587L1521.66 369.84L1550 387.743L1572.58 402.152L1599 438.83ZM475.432 767.626L473.511 778.105L506.175 789.458L514.341 797.318L526.831 803.867V813.91L542.683 819.587V849.715L550.849 889.887L538.359 854.518V834.869L526.831 821.77L510.979 812.164L494.647 797.318L470.628 785.528L451.894 797.318L439.405 816.53L413.465 824.827L395.692 839.672L377.438 849.715L366.87 866.308L368.792 896L361.586 858.448L373.115 849.715L386.565 836.616L395.692 830.066L400.015 816.53L419.23 803.867L443.728 775.049L460.06 771.119L475.432 767.626ZM1032.34 138.819L1040 152.807L1030.84 140.035L1023.01 135.018L1013.19 128.784L1008.52 129.392L1005.86 122.55L999.697 118.749L995.534 104.912L983.21 100.047L969.72 100.351L949.069 105.977H938.549L930.583 112.211L928.917 115.556L925.586 118.749V122.702L919.758 127.263V134.561L913.099 138.035L919.758 146.877V155.24L927.252 164.819V182L920.424 192.643L924.754 210.585V213.93L929.917 223.661L925.42 227.006L923.255 232.023V235.52L920.424 238.105L927.252 244.035L928.251 248.901L931.082 250.421L932.415 254.374L929.917 261.368L931.082 255.591L927.252 251.029L924.754 248.901L925.42 245.251L917.426 238.105L920.424 234.456L919.258 231.415L921.256 227.006L923.921 221.988L920.424 213.93L921.256 207.392L917.426 191.275L925.586 183.368L923.921 165.579L915.427 155.24V149.462L908.897 142.364L893.278 146.421L889.614 150.83L891.779 155.24L883.785 165.579L881.62 173.029L873.293 174.854L854.14 171.813L849.311 174.854L823.664 171.813L818.168 174.854L805.177 174.246L783.361 178.199L780.529 183.52L786.192 191.883L805.844 197.205L806.51 212.257L810.673 217.883L805.177 221.684L809.008 217.883L805.177 212.257L803.012 197.965L785.526 195.228L768.372 207.392L762.377 216.211L753.217 221.684L750.719 234.608L733.232 251.181L731.733 263.953L726.071 254.982L716.078 251.942H727.403L733.898 241.298L742.891 234.608L743.724 228.374L748.72 219.099L759.212 208.456V204.579H719.242L716.078 200.702L708.417 198.117L699.091 200.702L694.095 204.579H689.265L684.102 209.216H673.277L669.613 219.099L664.617 223.661L662.785 227.31L659.288 228.83L658.622 233.544L661.12 237.041L649.795 249.661L652.793 257.567L650.461 260.608L649.795 265.018L647.963 258.936L642.301 257.567L648.796 252.702L645.132 250.877L647.963 246.468L657.123 235.52L652.793 228.222L646.797 224.725L634.806 223.661L629.477 217.579H621.65L614.821 223.661L599 225.942L614.821 222.14L621.65 215.298L626.313 211.497V209.216H624.647L623.815 200.398L624.647 197.205L623.815 192.339L624.647 187.474L617.986 183.825V180.175L619.984 183.825L626.313 186.105L625.48 193.556L628.145 197.205L626.313 200.398L630.809 211.497L626.313 214.082L630.809 215.298L639.469 221.228H648.796L653.958 222.14V225.942H657.123L661.786 219.099L662.785 216.363L669.613 213.474L671.778 204.047L682.603 200.702V176.222L690.098 170.596V166.643L699.091 163.146L703.754 156.304L701.089 151.743L699.091 145.205L705.42 142.62L701.089 145.205L702.921 151.743L708.417 155.392L702.921 164.363L693.429 166.643L691.93 173.789L687.267 177.743V201.462L694.095 200.398L697.259 197.205L709.417 194.924L714.746 197.205L723.739 199.485H760.61L773.368 188.386L769.538 160.105L773.368 147.942L780.529 133.801L768.539 124.222L773.368 119.661V113.579L775.533 109.018L774.034 101.567L776.866 107.801L775.533 115.099V119.661L771.703 123.158L783.86 128.327L797.517 130.304L810.507 126.959L799.015 131.52H789.689L781.862 133.801L778.364 142.62L774.034 160.105L779.53 176.374L799.015 169.076H809.841L817.002 165.883L846.313 167.251L851.809 163.602L862.801 164.819L871.294 167.251L880.121 163.602V158.129L888.947 148.702L888.281 140.947L911.199 133.588L916.593 128.784L917.259 122.702L922.922 118.749V114.643L932.29 105.977H928.917L924.254 96.0936L911.43 84.9942L919.758 71.614L912.295 49.9481L904.602 50.9357L897.274 46.6784L882.952 38.924L881.953 33.4503L875.458 30.8655L870.628 23.7193H865.132L857.471 16.4211L846.813 18.7018L854.973 15.0526L849.977 7.75439L850.976 0L852.642 7.75439L855.972 13.2281H858.637L865.132 20.2222L871.96 22.807L876.623 30.1053L881.12 30.8655L885.617 33.4503V36.7953L893.111 42.117L905.602 48.5029L911.545 47.7724L911.43 47.4386L914.262 43.9415L928.917 40.1404L927.085 31.9298L932.748 42.117L917.426 45.614L922.922 73.5906L914.262 84.9942L928.917 93.6608L932.748 100.351L943.573 103.392L964.39 97.462H983.543L995.873 102.95L998.531 101.871L1017.52 84.8421L1022.68 86.0585L1030.17 75.8714L1025.34 83.7778L1034 85.7544L1035.34 88.4912L1033.17 86.0585L1025.51 84.6901L1022.68 88.1871L1017.52 86.0585L997.954 105.237L1003.86 115.251L1009.69 119.357L1013.85 124.07L1023.01 132.737L1032.34 138.819ZM868.13 233.544L869.129 208.456L865.632 232.023L861.468 234.608L858.637 242.971L851.975 248.901L849.311 253.462L843.648 265.474L845.314 279.158V267.906L851.975 255.591L853.141 251.029L861.468 242.971L863.467 235.52L868.13 233.544ZM650.461 267.298L649.795 270.947L661.12 274.901L663.951 277.637L668.281 279.918V283.415L673.777 285.392V295.883L676.608 309.871L672.278 297.556V290.713L668.281 286.152L662.785 282.807L657.123 277.637L648.796 273.532L642.301 277.637L637.971 284.327L628.977 287.216L622.815 292.386L616.487 295.883L612.823 301.661L613.489 312L610.991 298.924L614.988 295.883L619.651 291.322L622.815 289.041L624.314 284.327L630.976 279.918L639.469 269.883L645.132 268.515L650.461 267.298ZM440 736.807L432.339 722.819L423.013 716.737L413.853 708.07L409.69 703.357L403.861 699.251L397.954 689.237L417.517 670.058L422.68 672.187L425.511 668.69L433.172 670.058L435.337 672.491L434.005 669.754L425.344 667.778L430.174 659.871L422.68 670.058L417.517 668.842L398.531 685.871L395.873 686.95L383.543 681.462H364.39L343.573 687.392L332.748 684.351L328.917 677.661L314.262 668.994L322.922 657.591L317.426 629.614L332.748 626.117L327.085 615.93L328.917 624.14L314.262 627.942L311.431 631.439L311.546 631.772L305.602 632.503L293.111 626.117L285.617 620.795V617.45L281.12 614.865L276.623 614.105L271.96 606.807L265.132 604.222L258.637 597.228H255.972L252.642 591.754L250.976 584L249.977 591.754L254.973 599.053L246.813 602.702L257.471 600.421L265.132 607.719H270.628L275.458 614.865L281.953 617.45L282.952 622.924L297.275 630.678L304.602 634.936L312.295 633.948L319.758 655.614L311.431 668.994L324.254 680.094L328.917 689.977H332.29L322.922 698.643V702.749L317.259 706.702L316.593 712.784L311.199 717.588L288.281 724.947L288.947 732.702L280.121 742.129V747.602L271.294 751.251L262.801 748.819L251.809 747.602L246.313 751.251L217.002 749.883L209.841 753.076H199.015L179.53 760.374L174.034 744.105L178.364 726.62L181.862 717.801L189.689 715.521H199.015L210.507 710.959L197.517 714.304L183.86 712.328L171.703 707.158L175.533 703.661V699.099L176.866 691.801L174.034 685.567L175.533 693.018L173.368 697.579V703.661L168.539 708.222L180.529 717.801L173.368 731.942L169.538 744.105L173.368 772.386L160.61 783.485H123.739L114.746 781.205L109.417 778.924L97.259 781.205L94.0948 784.398L87.2666 785.462V761.743L91.9297 757.789L93.4286 750.643L102.921 748.363L108.417 739.392L102.921 735.743L101.089 729.205L105.42 726.62L99.091 729.205L101.089 735.743L103.754 740.304L99.091 747.146L90.0978 750.643V754.596L82.6035 760.222V784.702L71.7783 788.047L69.6133 797.474L62.7851 800.363L61.7859 803.099L57.1227 809.942H53.9585V806.14L48.7957 805.228H39.4694L30.8093 799.298L26.3127 798.082L30.8093 795.497L26.3127 784.398L28.1446 781.205L25.48 777.556L26.3127 770.105L19.9841 767.825L17.9856 764.175V767.825L24.6473 771.474L23.8146 776.339L24.6473 781.205L23.8146 784.398L24.6473 793.216H26.3127V795.497L21.6495 799.298L14.8214 806.14L-1 809.942L14.8214 807.661L21.6495 801.579H29.477L34.8063 807.661L46.7972 808.725L52.7927 812.222L57.1227 819.521L47.963 830.468L45.1318 834.877L48.7957 836.702L42.3006 841.567L47.963 842.936L49.7949 849.018L50.4611 844.608L52.7927 841.567L49.7949 833.661L61.1197 821.041L58.6216 817.544L59.2878 812.83L62.7851 811.31L64.6171 807.661L69.6133 803.099L73.2772 793.216H84.1023L89.2651 788.579H94.0948L99.091 784.702L108.417 782.117L116.078 784.702L119.242 788.579H159.212V792.456L148.72 803.099L143.724 812.374L142.891 818.608L133.898 825.298L127.403 835.942H116.078L126.071 838.982L131.733 847.953L133.232 835.181L150.719 818.608L153.217 805.684L162.376 800.211L168.372 791.392L185.526 779.228L203.012 781.965L205.177 796.257L209.008 801.883L205.177 805.684L210.673 801.883L206.51 796.257L205.844 781.205L186.192 775.883L180.529 767.521L183.361 762.199L205.177 758.246L218.168 758.854L223.664 755.813L249.311 758.854L254.14 755.813L273.293 758.854L281.62 757.029L283.785 749.579L291.779 739.24L289.614 734.83L293.278 730.421L308.897 726.364L315.427 733.462V739.24L323.921 749.579L325.586 767.368L317.426 775.275L321.256 791.392L320.424 797.93L323.921 805.988L321.256 811.006L319.258 815.415L320.424 818.456L317.426 822.105L325.42 829.251L324.754 832.901L327.252 835.029L331.082 839.591L329.917 845.368L332.415 838.374L331.082 834.421L328.251 832.901L327.252 828.035L320.424 822.105L323.255 819.521V816.023L325.42 811.006L329.917 807.661L324.754 797.93V794.585L320.424 776.643L327.252 766V748.819L319.758 739.24V730.877L313.099 722.035L319.758 718.561V711.263L325.586 706.702V702.749L328.917 699.556L330.583 696.211L338.549 689.977H349.069L369.72 684.351L383.21 684.047L395.534 688.912L399.697 702.749L405.859 706.55L408.524 713.392L413.187 712.784L423.013 719.018L430.84 724.035L440 736.807ZM269.129 792.456L268.13 817.544L263.467 819.521L261.468 826.971L253.141 835.029L251.975 839.591L245.314 851.906V863.158L243.648 849.474L249.311 837.462L251.975 832.901L258.637 826.971L261.468 818.608L265.632 816.023L269.129 792.456ZM49.7949 854.947L50.4611 851.298L45.1318 852.515L39.4694 853.883L30.9758 863.918L24.3142 868.328L22.8153 873.041L19.6511 875.322L14.9879 879.883L10.9909 882.924L13.489 896L12.8229 885.661L16.4868 879.883L22.8153 876.386L28.9773 871.216L37.9705 868.328L42.3006 861.637L48.7957 857.532L57.1227 861.637L62.7851 866.807L68.281 870.152L72.2779 874.714V881.556L76.608 893.871L73.7768 879.883V869.392L68.281 867.415V863.918L63.9509 861.637L61.1197 858.901L49.7949 854.947ZM1312.77 764.988L1314.44 723.095L1308.6 762.449L1301.64 766.766L1296.91 780.73L1285.77 790.632L1281.32 798.249L1271.86 818.307L1274.64 841.158V822.369L1285.77 801.804L1287.72 794.187L1301.64 780.73L1304.98 768.289L1312.77 764.988ZM949.002 821.354L947.889 827.447L966.815 834.049L971.546 838.619L978.782 842.427V848.267L987.967 851.568V869.087L992.699 892.445L985.462 871.88V860.454L978.782 852.837L969.598 847.251L960.135 838.619L946.219 831.764L935.364 838.619L928.128 849.79L913.098 854.615L902.8 863.247L892.224 869.087L886.101 878.735L887.214 896L883.039 874.165L889.719 869.087L897.512 861.47L902.8 857.661L905.305 849.79L916.438 842.427L930.633 825.67L940.096 823.385L949.002 821.354Z" fill="white"></path></g></g><defs><clipPath><rect width="1600" height="896" fill="white"></rect></clipPath><clipPath><rect width="1600" height="896" fill="white"></rect></clipPath></defs></symbol><symbol id="icon-girl" width="580" height="619" fill="none" xmlns="http://www.w3.org/2000/svg"><path fill-rule="evenodd" clip-rule="evenodd" d="M436.172 454.641C436.172 454.641 431.537 445.333 427.932 440.678C424.328 436.024 423.138 435.137 423.138 430.626C423.138 426.131 434.839 368.049 436.787 364.005C438.735 359.946 440.232 356.195 440.232 356.195L449.969 350.345L452.076 343.741C452.076 343.741 451.174 302.331 453.43 285.372C455.671 268.428 458.08 257.169 454.025 247.117C449.969 237.065 451.625 230.912 440.376 222.958C429.142 215 424.492 207.349 410.987 208.252C397.497 209.155 394.057 206.753 379.362 210.956C364.667 215.143 329.13 223.554 326.879 225.663C324.628 227.756 321.634 231.656 320.732 234.956C319.829 238.255 314.441 272.615 314.441 272.615C314.441 272.615 301.694 235.407 300.197 229.557C298.7 223.697 297.495 222.199 290.604 221.152C283.703 220.105 263.758 216.046 257.61 217.996C251.463 219.962 228.98 223.261 219.228 233.909C209.491 244.556 199.898 270.07 193.75 290.621C187.603 311.188 180.409 347.944 180.102 351.844C179.794 355.743 174.405 359.654 186.106 364.6C197.791 369.547 213.08 372.559 213.08 372.559C213.08 372.559 211.891 382.612 213.834 392.659C215.782 402.711 214.88 411.568 214.141 416.817C213.388 422.067 212.485 426.418 212.485 426.418L219.987 429.271H224.78C224.78 429.271 227.18 413.662 224.027 406.011C220.889 398.36 216.992 372.703 216.992 372.703C216.992 372.703 244.725 378.855 260.769 377.952C276.812 377.049 286.554 376 286.554 376C286.554 376 285.81 399.714 286.554 410.814C287.307 421.928 288.804 434.685 288.953 437.23C289.112 439.775 289.855 445.635 289.855 445.635C289.855 445.635 309.057 444.732 318.199 444.732C327.341 444.732 340.087 445.184 340.087 445.184C340.087 445.184 342.63 427.178 343.24 412.615C343.835 398.067 344.881 386.214 345.481 379.61C346.091 373.006 347.137 357.996 347.137 357.996C347.137 357.996 364.518 364.005 376.978 364.005C389.416 364.005 413.402 364.908 415.96 364.298C418.503 363.702 420.452 362.348 420.452 362.348C420.452 362.348 409.813 390.858 407.413 400.31C405.013 409.767 401.558 420.717 401.122 426.126C400.671 431.524 398.271 445.63 398.271 445.63C398.271 445.63 408.008 444.727 417.006 448.175C426.004 451.624 436.172 454.641 436.172 454.641Z" fill="#FFA095"></path><path d="M398.731 203.915C398.731 203.915 401.741 203.32 404.299 201.052C406.858 198.784 421.568 187.726 421.639 171.757C421.711 155.798 421.86 151.991 415.128 138.141C408.401 124.307 405.391 119.55 402.541 103.797C399.69 88.0588 402.905 73.9218 392.804 54.443C382.719 34.9539 371.367 18.8516 351.976 11.5907C332.59 4.35025 328.924 1.33812 312.747 2.29769C296.586 3.24187 291.525 6.39768 291.525 6.39768" stroke="#0D62B1" stroke-width="3" stroke-miterlimit="10" stroke-linecap="round" stroke-linejoin="round"></path><path d="M288.973 6.67976C288.973 6.67976 283.974 4.53997 271.955 11.0876C259.937 17.6353 238.628 36.6882 233.147 55.9925C227.682 75.2814 226.723 96.2381 220.068 112.33C213.397 128.402 215.069 128.638 202.22 143.052C189.355 157.466 183.895 159.97 179.721 170.207C175.548 180.449 173.297 190.091 173.297 190.091" stroke="#0D62B1" stroke-width="3" stroke-miterlimit="10" stroke-linecap="round" stroke-linejoin="round"></path><path fill-rule="evenodd" clip-rule="evenodd" d="M274.264 150.826C281.253 150.826 286.954 145.125 286.954 138.126C286.954 131.142 281.258 125.441 274.264 125.441C267.286 125.441 261.59 131.142 261.59 138.126C261.59 145.125 267.286 150.826 274.264 150.826Z" fill="#FFA095"></path><path fill-rule="evenodd" clip-rule="evenodd" d="M348.28 131.712C355.258 131.712 360.955 126.011 360.955 119.011C360.955 112.028 355.258 106.327 348.28 106.327C341.292 106.327 335.605 112.028 335.605 119.011C335.611 126.011 341.292 131.712 348.28 131.712Z" fill="#FFA095"></path><path d="M177.457 190.215C177.457 190.215 188.763 198.548 195.187 200.57C201.627 202.592 205.303 202.109 205.303 202.109" stroke="#0D62B1" stroke-width="3" stroke-miterlimit="10" stroke-linecap="round" stroke-linejoin="round"></path><path d="M212.086 203.423C212.086 203.423 229.816 192.473 232.318 182.826C234.82 173.184 236.953 163.29 233.149 151.026C229.339 138.752 225.535 122.311 229.339 105.875C233.149 89.4546 237.912 77.5395 239.819 73.3676C241.721 69.2061 244.572 64.6699 244.572 64.6699" stroke="#0D62B1" stroke-width="3" stroke-miterlimit="10" stroke-linecap="round" stroke-linejoin="round"></path><path d="M254.221 58.0095C254.221 58.0095 248.51 88.136 247.669 92.903C246.838 97.6599 245.418 102.196 245.418 102.196" stroke="#0D62B1" stroke-width="3" stroke-miterlimit="10" stroke-linecap="round" stroke-linejoin="round"></path><path d="M254.449 86.3604L250.758 100.41" stroke="#0D62B1" stroke-width="3" stroke-miterlimit="10" stroke-linecap="round" stroke-linejoin="round"></path><path d="M219.358 144.001C219.358 144.001 210.303 156.625 209.59 167.216C208.877 177.817 208.877 181.63 210.185 186.402C211.492 191.159 214.358 196.393 214.358 196.393" stroke="#0D62B1" stroke-width="3" stroke-miterlimit="10" stroke-linecap="round" stroke-linejoin="round"></path><path d="M229.471 180.686C229.471 180.686 227.682 177.822 227.682 174.374C227.682 170.91 228.03 167.698 228.03 167.698" stroke="#0D62B1" stroke-width="3" stroke-miterlimit="10" stroke-linecap="round" stroke-linejoin="round"></path><path d="M239.588 185.212C239.588 185.212 234.938 196.398 233.035 198.784C231.133 201.17 229.59 203.074 229.59 203.074" stroke="#0D62B1" stroke-width="3" stroke-miterlimit="10" stroke-linecap="round" stroke-linejoin="round"></path><path d="M240.65 197.24L238.512 202.71" stroke="#0D62B1" stroke-width="3" stroke-miterlimit="10" stroke-linecap="round" stroke-linejoin="round"></path><path d="M247.07 204.865C247.07 204.865 254.454 193.55 254.223 183.775C253.977 174.015 251.608 163.66 249.936 156.501C248.265 149.359 246.958 139.717 252.669 126.016C258.381 112.33 264.093 90.291 263.862 79.4535C263.631 68.616 263.149 50.2764 263.149 50.2764" stroke="#0D62B1" stroke-width="3" stroke-miterlimit="10" stroke-linecap="round" stroke-linejoin="round"></path><path d="M262.072 46.3303C262.072 46.3303 266.594 57.0498 277.418 64.439C288.247 71.8282 289.683 73.0187 295.512 75.8718C301.342 78.7351 305.382 79.5664 305.382 79.5664" stroke="#0D62B1" stroke-width="3" stroke-miterlimit="10" stroke-linecap="round" stroke-linejoin="round"></path><path d="M280.395 40.2649C280.395 40.2649 293.126 54.679 300.991 59.9181C308.841 65.1522 319.551 68.4876 319.551 68.4876" stroke="#0D62B1" stroke-width="3" stroke-miterlimit="10" stroke-linecap="round" stroke-linejoin="round"></path><path d="M297.418 34.3125C297.418 34.3125 324.669 61.7039 329.668 65.5114C334.667 69.324 339.784 71.3458 339.784 71.3458" stroke="#0D62B1" stroke-width="3" stroke-miterlimit="10" stroke-linecap="round" stroke-linejoin="round"></path><path d="M325.496 41.6917C325.496 41.6917 349.538 72.7777 355.608 77.5447C361.669 82.3015 370.595 93.8523 370.595 93.8523" stroke="#0D62B1" stroke-width="3" stroke-miterlimit="10" stroke-linecap="round" stroke-linejoin="round"></path><path d="M365.246 71.3457C365.246 71.3457 367.748 79.5662 368.343 83.9689C368.938 88.3768 368.825 93.4979 368.825 93.4979" stroke="#0D62B1" stroke-width="3" stroke-miterlimit="10" stroke-linecap="round" stroke-linejoin="round"></path><path d="M382.263 79.5664C382.263 79.5664 385.473 93.8522 383.34 103.976C381.186 114.101 379.766 125.662 371.322 134.113C362.862 142.565 355.842 149.359 352.864 156.501C349.9 163.66 349.654 171.629 352.033 175.919C354.417 180.209 357.514 181.153 356.089 188.778C354.648 196.398 352.992 200.924 350.131 204.619C347.28 208.313 344.07 211.048 344.07 211.048C344.07 211.048 359.057 207.836 362.267 206.774C365.477 205.696 368.691 196.768 368.691 196.768L370.594 203.91C370.594 203.91 375.126 203.079 376.787 201.406C378.459 199.749 380.71 197.245 380.71 193.899C380.71 190.569 379.766 186.874 379.997 181.158C380.243 175.441 381.55 168.781 384.401 164.373C387.262 159.965 394.635 148.763 395.594 146.146C396.537 143.529 398.096 138.757 398.445 133.523C398.809 128.289 397.732 123.05 397.732 123.05" stroke="#0D62B1" stroke-width="3" stroke-miterlimit="10" stroke-linecap="round" stroke-linejoin="round"></path><path d="M384.995 126.724C384.283 129.228 380.955 132.322 377.146 137.443C373.336 142.565 372.623 145.546 370.721 151.493C368.819 157.456 367.742 162.346 367.742 162.346" stroke="#0D62B1" stroke-width="3" stroke-miterlimit="10" stroke-linecap="round" stroke-linejoin="round"></path><path d="M378.096 149.589C378.096 149.589 374.42 152.571 374.42 155.188" stroke="#0D62B1" stroke-width="3" stroke-miterlimit="10" stroke-linecap="round" stroke-linejoin="round"></path><path d="M388.925 158.533C388.925 158.533 388.212 168.776 385.249 174.954C382.27 181.153 379.988 184.365 379.988 184.365" stroke="#0D62B1" stroke-width="3" stroke-miterlimit="10" stroke-linecap="round" stroke-linejoin="round"></path><path d="M401.189 166.159C401.189 166.159 397.98 174.128 394.996 179.962C392.017 185.812 387.977 190.333 387.977 190.333" stroke="#0D62B1" stroke-width="3" stroke-miterlimit="10" stroke-linecap="round" stroke-linejoin="round"></path><path d="M403.571 183.057C403.571 183.057 400.823 186.269 398.572 188.424C396.306 190.564 393.922 191.99 393.922 191.99" stroke="#0D62B1" stroke-width="3" stroke-miterlimit="10" stroke-linecap="round" stroke-linejoin="round"></path><path d="M360.072 81.6448C360.072 81.6448 362.979 87.669 363.707 93.0211C364.42 98.3885 365.015 99.3327 365.015 99.3327L367.153 96.4797" stroke="#0D62B1" stroke-width="3" stroke-miterlimit="10" stroke-linecap="round" stroke-linejoin="round"></path><path d="M370.594 93.8521C370.594 93.8521 373.096 91.117 376.67 92.4255C380.243 93.7341 384.037 97.6904 384.037 97.6904" stroke="#0D62B1" stroke-width="3" stroke-miterlimit="10" stroke-linecap="round" stroke-linejoin="round"></path><path d="M377.747 101.719C377.747 101.719 376.557 98.8554 373.573 102.432C370.594 106.009 369.651 106.009 367.979 112.325C366.323 118.637 362.632 136.982 357.863 144.833C353.11 152.689 346.804 165.081 333.955 171.875C321.091 178.654 313.01 180.445 302.766 177.592C292.532 174.728 280.396 172.47 270.516 160.56C260.646 148.645 251.242 132.692 251.242 132.692" stroke="#0D62B1" stroke-width="3" stroke-miterlimit="10" stroke-linecap="round" stroke-linejoin="round"></path><path d="M260.529 92.5383C260.529 92.5383 266.113 85.6417 272.184 84.2049C278.259 82.7784 283.971 82.6655 283.971 82.6655C283.971 82.6655 266.938 84.1075 263.493 85.8213C260.047 87.5506 255.879 90.8809 255.879 90.8809" stroke="#0D62B1" stroke-width="3" stroke-miterlimit="10" stroke-linecap="round" stroke-linejoin="round"></path><path d="M341.685 73.1368C341.685 73.1368 335.727 71.233 325.74 73.2548C315.741 75.2766 312.645 76.467 312.645 76.467C312.645 76.467 323.586 68.9598 330.61 69.3241C337.63 69.6731 343.936 70.6326 343.936 70.6326" stroke="#0D62B1" stroke-width="3" stroke-miterlimit="10" stroke-linecap="round" stroke-linejoin="round"></path><path d="M342.399 99.1016C342.399 99.1016 336.456 101.719 330.975 103.858C325.494 106.014 320.146 104.341 320.146 104.341C320.146 104.341 323.243 107.917 328.837 106.845C334.421 105.767 341.686 102.319 341.686 102.319" stroke="#0D62B1" stroke-width="3" stroke-miterlimit="10" stroke-linecap="round" stroke-linejoin="round"></path><path d="M264.566 117.908C264.566 117.908 267.068 118.868 272.893 116.964C278.723 115.06 285.506 110.534 285.506 110.534C285.506 110.534 277.41 118.986 272.657 119.945C267.889 120.889 264.443 120.889 264.443 120.889" stroke="#0D62B1" stroke-width="3" stroke-miterlimit="10" stroke-linecap="round" stroke-linejoin="round"></path><path d="M296.461 104.7L299.204 121.967" stroke="#0D62B1" stroke-width="3" stroke-miterlimit="10" stroke-linecap="round" stroke-linejoin="round"></path><path d="M306.221 143.755C306.221 143.755 310.379 141.487 314.491 139.768C318.588 138.039 321.454 135.535 321.454 135.535" stroke="#0D62B1" stroke-width="3" stroke-miterlimit="10" stroke-linecap="round" stroke-linejoin="round"></path><path d="M252.668 141.02L257.334 142.39" stroke="#0D62B1" stroke-width="3" stroke-miterlimit="10" stroke-linecap="round" stroke-linejoin="round"></path><path d="M260.282 148.645C260.282 148.645 260.529 148.645 256.473 148.645C252.433 148.645 248.582 147.727 248.582 147.727" stroke="#0D62B1" stroke-width="3" stroke-miterlimit="10" stroke-linecap="round" stroke-linejoin="round"></path><path d="M367.035 118.75C367.035 118.75 371.557 116.846 372.747 116.246C373.936 115.645 377.269 111.592 377.269 111.592" stroke="#0D62B1" stroke-width="3" stroke-miterlimit="10" stroke-linecap="round" stroke-linejoin="round"></path><path d="M365.129 126.493C365.129 126.493 372.861 125.066 375.363 123.511C377.865 121.972 380.331 117.564 380.331 117.564" stroke="#0D62B1" stroke-width="3" stroke-miterlimit="10" stroke-linecap="round" stroke-linejoin="round"></path><path d="M293.015 175.554C293.015 175.554 294.687 184.252 290.995 192.123C287.304 199.98 282.535 208.559 275.998 212.721C269.456 216.898 262.785 217.955 262.785 217.955" stroke="#0D62B1" stroke-width="3" stroke-miterlimit="10" stroke-linecap="round" stroke-linejoin="round"></path><path d="M259.805 157.343C259.805 157.343 262.666 172.224 265.998 178.058C269.341 183.908 271.956 188.896 274.807 191.646C277.668 194.381 281.944 199.02 281.944 199.02" stroke="#0D62B1" stroke-width="3" stroke-miterlimit="10" stroke-linecap="round" stroke-linejoin="round"></path><path d="M278.129 174.128C278.129 174.128 281.472 181.517 281.938 183.421" stroke="#0D62B1" stroke-width="3" stroke-miterlimit="10" stroke-linecap="round" stroke-linejoin="round"></path><path d="M284.918 176.745C284.918 176.745 286.472 179.495 286.343 183.539C286.225 187.582 283.975 194.741 283.975 194.741" stroke="#0D62B1" stroke-width="3" stroke-miterlimit="10" stroke-linecap="round" stroke-linejoin="round"></path><path d="M273.611 203.074C273.611 203.074 264.089 204.264 259.572 204.264C255.05 204.264 248.918 201.673 248.918 201.673" stroke="#0D62B1" stroke-width="3" stroke-miterlimit="10" stroke-linecap="round" stroke-linejoin="round"></path><path d="M374.533 201.401C374.533 201.401 376.902 204.614 382.496 207.118C388.09 209.622 391.304 210.93 391.304 210.93" stroke="#0D62B1" stroke-width="3" stroke-miterlimit="10" stroke-linecap="round" stroke-linejoin="round"></path><path d="M204.938 264.194C206.332 264.194 219.632 269.095 219.632 269.095" stroke="#0D62B1" stroke-width="3" stroke-miterlimit="10" stroke-linecap="round" stroke-linejoin="round"></path><path d="M282.926 301.227C282.926 301.227 285.105 307 285.351 308.545C285.612 310.084 286.253 313.548 286.253 313.548" stroke="#0D62B1" stroke-width="3" stroke-miterlimit="10" stroke-linecap="round" stroke-linejoin="round"></path><path d="M290.803 338.174C290.485 339.775 290.162 346.394 290.485 350.304C290.803 354.219 291.065 357.098 291.255 359.977C291.444 362.871 292.531 369.609 292.531 369.609" stroke="#0D62B1" stroke-width="3" stroke-miterlimit="10" stroke-linecap="round" stroke-linejoin="round"></path><path d="M187.105 347.41C187.105 347.41 209.153 354.086 231.461 358.699C253.755 363.322 264.265 362.553 270.674 362.553C277.084 362.553 283.493 361.275 283.493 361.275" stroke="#0D62B1" stroke-width="3" stroke-miterlimit="10" stroke-linecap="round" stroke-linejoin="round"></path><path d="M429.747 235.581C429.747 235.581 421.826 236.859 418.554 238.27C415.283 239.666 409.689 241.647 409.689 241.647" stroke="#0D62B1" stroke-width="3" stroke-miterlimit="10" stroke-linecap="round" stroke-linejoin="round"></path><path d="M380.637 255.902C380.637 255.902 375.741 262.896 372.936 268.048C370.131 273.184 368.152 277.736 368.152 277.736" stroke="#0D62B1" stroke-width="3" stroke-miterlimit="10" stroke-linecap="round" stroke-linejoin="round"></path><path d="M341.89 290.2C341.89 290.2 342.27 301.617 341.495 310.084C340.726 318.551 341.757 333.299 341.89 337.399C342.008 341.499 343.68 353.691 343.68 353.691" stroke="#0D62B1" stroke-width="3" stroke-miterlimit="10" stroke-linecap="round" stroke-linejoin="round"></path><path d="M349.125 348.955C349.125 348.955 374.761 348.955 386.81 348.693C398.859 348.447 412.446 348.185 420.137 345.871C427.828 343.572 433.976 339.718 433.976 339.718" stroke="#0D62B1" stroke-width="3" stroke-miterlimit="10" stroke-linecap="round" stroke-linejoin="round"></path><path d="M339.096 232.662C339.096 232.662 348.545 226.715 359.4 226.715C370.254 226.715 377.596 224.836 377.596 224.836" stroke="#0D62B1" stroke-width="3" stroke-miterlimit="10" stroke-linecap="round" stroke-linejoin="round"></path><path d="M328.724 236.864L321.715 267.935" stroke="#0D62B1" stroke-width="3" stroke-miterlimit="10" stroke-linecap="round" stroke-linejoin="round"></path><path d="M290.801 236.167L300.014 262.901L301.645 274.698" stroke="#0D62B1" stroke-width="3" stroke-miterlimit="10" stroke-linecap="round" stroke-linejoin="round"></path><path d="M288.116 229.865L269.453 228.572" stroke="#0D62B1" stroke-width="3" stroke-miterlimit="10" stroke-linecap="round" stroke-linejoin="round"></path><path d="M306.964 283.888C306.964 283.888 305.252 284.371 305.088 287.162C304.929 289.938 305.744 291.991 308.113 291.498C310.481 291.006 312.937 289.872 312.937 288.312C312.937 286.757 310.727 284.704 310.727 284.704" stroke="#0D62B1" stroke-width="3" stroke-miterlimit="10" stroke-linecap="round" stroke-linejoin="round"></path><path d="M310.249 302.479C310.249 302.479 306.644 303.86 306.311 306.159C305.993 308.458 305.409 310.336 308.203 310.582C310.977 310.828 313.52 310.336 313.771 308.776C314.017 307.221 313.366 304.512 312.536 303.947C311.715 303.383 310.249 302.479 310.249 302.479Z" stroke="#0D62B1" stroke-width="3" stroke-miterlimit="10" stroke-linecap="round" stroke-linejoin="round"></path><path d="M347.078 359.951C347.078 359.951 344.812 387.907 343.679 404.651C342.545 421.395 339.941 441.058 335.552 455.195C331.163 469.332 328.738 476.316 327.764 484.126C326.789 491.92 325.164 498.422 325.164 498.422" stroke="#0D62B1" stroke-width="3" stroke-miterlimit="10" stroke-linecap="round" stroke-linejoin="round"></path><path d="M383.133 489.493C383.133 489.493 392.229 468.357 395.807 448.853C399.381 429.348 401.652 413.739 404.093 405.785C406.518 397.816 417.567 363.851 417.567 363.851" stroke="#0D62B1" stroke-width="3" stroke-miterlimit="10" stroke-linecap="round" stroke-linejoin="round"></path><path d="M287.316 376.69C287.316 376.69 285.049 394.07 285.701 406.914C286.342 419.758 286.019 434.218 287.649 446.739C289.264 459.249 288.131 475.336 286.342 486.389C284.552 497.442 282.127 518.578 282.127 518.578" stroke="#0D62B1" stroke-width="3" stroke-miterlimit="10" stroke-linecap="round" stroke-linejoin="round"></path><path d="M214.557 371.004C214.557 371.004 222.842 402.86 223.334 411.311C223.816 419.763 223.001 441.699 224.627 449.987C226.252 458.274 231.441 489.493 232.415 495.004C233.404 500.531 235.178 504.272 235.178 504.272" stroke="#0D62B1" stroke-width="3" stroke-miterlimit="10" stroke-linecap="round" stroke-linejoin="round"></path><path d="M291.223 434.377C291.223 434.377 294.781 435.845 303.882 433.577C312.978 431.293 317.197 432.427 317.197 432.427" stroke="#0D62B1" stroke-width="3" stroke-miterlimit="10" stroke-linecap="round" stroke-linejoin="round"></path><path d="M314.766 444.619C314.766 444.619 312.658 450.802 312.658 457.145C312.658 463.487 312.002 470.805 312.002 470.805" stroke="#0D62B1" stroke-width="3" stroke-miterlimit="10" stroke-linecap="round" stroke-linejoin="round"></path><path d="M310.875 484.126L312.485 493.229" stroke="#0D62B1" stroke-width="3" stroke-miterlimit="10" stroke-linecap="round" stroke-linejoin="round"></path><path d="M317.371 462.512L328.733 463.313" stroke="#0D62B1" stroke-width="3" stroke-miterlimit="10" stroke-linecap="round" stroke-linejoin="round"></path><path d="M295.759 463.313H292.514" stroke="#0D62B1" stroke-width="3" stroke-miterlimit="10" stroke-linecap="round" stroke-linejoin="round"></path><path d="M310.873 499.238C310.873 499.238 312.006 501.029 310.873 503.789C309.725 506.555 309.084 511.748 309.084 511.748" stroke="#0D62B1" stroke-width="3" stroke-miterlimit="10" stroke-linecap="round" stroke-linejoin="round"></path><path d="M304.041 450.32C304.041 450.32 301.934 450.32 299.985 453.563C298.037 456.822 298.519 461.199 300.303 461.856C302.093 462.513 307.133 461.04 308.266 459.09C309.399 457.14 308.266 451.772 308.266 451.772L304.041 450.32Z" stroke="#0D62B1" stroke-width="3" stroke-miterlimit="10" stroke-linecap="round" stroke-linejoin="round"></path><path d="M220.576 444.953L217.32 443.819" stroke="#0D62B1" stroke-width="3" stroke-miterlimit="10" stroke-linecap="round" stroke-linejoin="round"></path><path d="M214.894 429.348C214.894 429.348 215.212 434.875 214.735 436.984C214.243 439.108 210.187 438.451 210.187 438.451L213.587 444.619C213.587 444.619 210.664 446.246 187.438 449.504C164.211 452.747 142.615 451.772 127.357 454.056C112.083 456.324 100.557 459.906 100.557 459.906" stroke="#0D62B1" stroke-width="3" stroke-miterlimit="10" stroke-linecap="round" stroke-linejoin="round"></path><path d="M217.48 494.204C217.48 494.204 204.503 484.126 189.88 477.783C175.257 471.441 154.953 464.939 154.953 464.939" stroke="#0D62B1" stroke-width="3" stroke-miterlimit="10" stroke-linecap="round" stroke-linejoin="round"></path><path d="M146.189 462.672C146.189 462.672 141.8 460.388 138.56 460.388C135.304 460.388 132.715 460.229 132.715 460.229" stroke="#0D62B1" stroke-width="3" stroke-miterlimit="10" stroke-linecap="round" stroke-linejoin="round"></path><path d="M294.146 535.645C294.146 535.645 287.49 539.063 286.342 558.393C285.209 577.738 281.486 595.498 281.486 595.498" stroke="#0D62B1" stroke-width="3" stroke-miterlimit="10" stroke-linecap="round" stroke-linejoin="round"></path><path d="M318.173 546.205C306.805 543.614 294.31 536.302 280.662 530.277C267.028 524.269 242.828 510.773 219.442 501.347C196.042 491.92 160.971 478.758 148.456 474.54C135.955 470.307 118.092 460.721 100.552 459.905C83.0115 459.09 69.0398 456.981 51.9917 463.964C34.9436 470.958 21.6179 476.49 14.1475 487.702C6.67708 498.914 1.64726 505.082 2.30354 515.166C2.94445 525.244 2.7855 540.853 19.8438 553.841C36.8919 566.844 53.7811 578.554 80.5812 581.479C107.366 584.403 179.327 588.298 216.679 590.905C254.031 593.507 274.319 594.322 292.198 596.755C310.061 599.197 308.59 597.412 318.347 600.988C328.083 604.565 330.688 604.729 342.05 605.047C353.417 605.381 362.513 603.754 369.332 604.888C376.162 606.022 385.247 609.44 390.61 611.39C395.973 613.339 408.966 618.548 419.836 615.941C430.721 613.339 436.243 607.49 439.165 599.038C442.088 590.587 445.01 572.709 437.217 564.083C429.429 555.473 413.339 550.598 400.521 551.414C387.688 552.23 382.007 549.305 369.491 548.971C356.991 548.653 354.884 547.837 344.655 548.812C334.421 549.787 333.288 548.812 326.458 548.812C319.639 548.812 318.173 546.205 318.173 546.205Z" stroke="#0D62B1" stroke-width="3" stroke-miterlimit="10" stroke-linecap="round" stroke-linejoin="round"></path><path d="M355.203 558.947C355.203 558.947 337.022 553.374 331.341 552.548C325.644 551.732 321.107 550.583 318.174 559.763C315.251 568.943 314.616 577.625 315.093 583.198C315.585 588.771 313.8 591.388 319.481 592.855C325.162 594.646 346.282 595.955 346.282 595.955" stroke="#0D62B1" stroke-width="3" stroke-miterlimit="10" stroke-linecap="round" stroke-linejoin="round"></path><path d="M334.421 554.18C334.421 554.18 329.217 550.603 325.484 557.597C321.746 564.581 319.803 569.948 319.48 579.211C319.147 588.478 316.209 592.126 319.48 592.855C322.736 593.599 328.417 594.394 328.417 594.394" stroke="#0D62B1" stroke-width="3" stroke-miterlimit="10" stroke-linecap="round" stroke-linejoin="round"></path><path d="M319.883 601.538C319.883 601.538 321.903 597.899 325.641 597.407C329.378 596.924 332.137 596.75 332.137 596.75" stroke="#0D62B1" stroke-width="3" stroke-miterlimit="10" stroke-linecap="round" stroke-linejoin="round"></path><path d="M311.352 598.874C311.352 598.874 312.485 595.949 316.715 595.139C320.929 594.323 323.939 593.697 323.939 593.697" stroke="#0D62B1" stroke-width="3" stroke-miterlimit="10" stroke-linecap="round" stroke-linejoin="round"></path><path d="M356.018 560.999C356.018 560.999 360.073 581.479 363.647 588.478C367.221 595.462 369.492 600.331 369.492 600.331" stroke="#0D62B1" stroke-width="3" stroke-miterlimit="10" stroke-linecap="round" stroke-linejoin="round"></path><path d="M365.596 561.333C365.596 561.333 368.359 573.187 372.425 580.822C376.481 588.473 379.403 597.899 379.403 597.899" stroke="#0D62B1" stroke-width="3" stroke-miterlimit="10" stroke-linecap="round" stroke-linejoin="round"></path><path d="M362.195 565.392C362.195 565.392 363.487 570.759 365.118 575.634C366.743 580.509 368.04 584.901 368.04 584.901" stroke="#0D62B1" stroke-width="3" stroke-miterlimit="10" stroke-linecap="round" stroke-linejoin="round"></path><path d="M377.135 570.585C377.135 570.585 375.884 570.775 373.223 573.843C370.577 576.912 370.736 576.07 370.736 576.07" stroke="#0D62B1" stroke-width="3" stroke-miterlimit="10" stroke-linecap="round" stroke-linejoin="round"></path><path d="M360.102 582.644C360.102 582.644 358.985 584.896 356.57 587.806C354.17 590.715 353.663 591.033 352.806 592.506C351.95 593.989 350.438 596.273 350.438 596.273" stroke="#0D62B1" stroke-width="3" stroke-miterlimit="10" stroke-linecap="round" stroke-linejoin="round"></path><path d="M365.973 593.071C365.973 593.071 364.65 594.133 363.645 595.775C362.63 597.401 361.117 599.382 361.117 599.382" stroke="#0D62B1" stroke-width="3" stroke-miterlimit="10" stroke-linecap="round" stroke-linejoin="round"></path><path d="M376.788 590.541C376.788 590.541 376.455 590.992 378.634 587.503C380.797 583.998 380.567 583.926 381.582 582.603C382.587 581.279 382.858 580.627 382.858 580.627" stroke="#0D62B1" stroke-width="3" stroke-miterlimit="10" stroke-linecap="round" stroke-linejoin="round"></path><path d="M377.266 561.03C377.266 561.03 377.543 566.587 379.142 570.862C380.727 575.136 381.772 577.507 382.629 580.273C383.485 583.023 384.254 584.347 385.813 587.267C387.366 590.176 387.951 591.454 388.997 593.086C390.043 594.718 390.479 595.852 390.479 595.852" stroke="#0D62B1" stroke-width="3" stroke-miterlimit="10" stroke-linecap="round" stroke-linejoin="round"></path><path d="M382.09 565.351C382.09 565.351 382.977 568.815 384.023 571.211C385.069 573.628 386.161 575.952 386.74 576.999" stroke="#0D62B1" stroke-width="3" stroke-miterlimit="10" stroke-linecap="round" stroke-linejoin="round"></path><path d="M360.263 555.678C358.637 555.283 358.197 554.498 357.689 555.447C357.181 556.376 356.422 557.849 357.72 558.547C358.996 559.245 362.006 560.102 364.929 559.593C366.046 559.096 360.263 555.678 360.263 555.678Z" stroke="#0D62B1" stroke-width="3" stroke-miterlimit="10" stroke-linecap="round" stroke-linejoin="round"></path><path d="M388.18 560.604C388.18 560.604 390.359 566.351 392.179 572.068C394.009 577.784 395.055 578.949 396.568 582.644C398.08 586.323 399.475 588.314 400.141 590.064C400.798 591.808 400.911 593.291 400.998 593.599" stroke="#0D62B1" stroke-width="3" stroke-miterlimit="10" stroke-linecap="round" stroke-linejoin="round"></path><path d="M397.264 600.752C397.264 600.752 398.54 600.593 400.725 599.459C402.888 598.34 404.678 597.129 404.678 597.129" stroke="#0D62B1" stroke-width="3" stroke-miterlimit="10" stroke-linecap="round" stroke-linejoin="round"></path><path d="M406.393 589.042C406.393 589.042 406.464 587.765 406.787 585.014C407.095 582.248 407.049 582.946 407.167 580.853C407.285 578.744 407.633 575.993 407.633 575.993" stroke="#0D62B1" stroke-width="3" stroke-miterlimit="10" stroke-linecap="round" stroke-linejoin="round"></path><path d="M406.899 574.249C406.899 574.249 407.555 573.972 406.043 571.411C404.53 568.835 403.864 567.834 402.659 566.901C401.469 565.972 400.29 564.997 398.865 564.135C397.424 563.278 397.152 563.016 397.152 563.016" stroke="#0D62B1" stroke-width="3" stroke-miterlimit="10" stroke-linecap="round" stroke-linejoin="round"></path><path d="M212.202 590.602C212.202 590.602 207.639 592.655 201.286 596.888C194.934 601.122 193.831 606.068 179.921 608.583C166.011 611.112 164.601 615.141 154.023 608.48C143.43 601.835 140.708 597.191 139.503 593.353C138.298 589.515 138.893 585.178 138.893 585.178" stroke="#0D62B1" stroke-width="3" stroke-miterlimit="10" stroke-linecap="round" stroke-linejoin="round"></path><path d="M396.291 463.313C396.291 463.313 395.317 467.054 404.254 466.253C413.175 465.437 417.728 463.652 417.728 463.652" stroke="#0D62B1" stroke-width="3" stroke-miterlimit="10" stroke-linecap="round" stroke-linejoin="round"></path><path d="M415.124 449.504L414.807 461.04" stroke="#0D62B1" stroke-width="3" stroke-miterlimit="10" stroke-linecap="round" stroke-linejoin="round"></path><path d="M404.094 448.037L406.042 455.672L406.201 461.855" stroke="#0D62B1" stroke-width="3" stroke-miterlimit="10" stroke-linecap="round" stroke-linejoin="round"></path><path d="M447.293 475.341C447.293 475.341 472.468 470.964 484.327 469.815C496.171 468.681 496.33 466.079 510.302 468.198C524.268 470.307 528.006 471.6 528.006 471.6" stroke="#0D62B1" stroke-width="3" stroke-miterlimit="10" stroke-linecap="round" stroke-linejoin="round"></path><path d="M433.641 451.618C433.641 451.618 433 459.254 440.953 460.229C448.915 461.204 460.441 458.936 471.491 459.254C482.535 459.572 504.454 460.562 517.128 463.965C529.787 467.382 537.258 469.491 545.702 476.152C554.147 482.812 557.562 483.628 560.817 488.021C564.058 492.413 577.707 511.743 577.865 525.244C578.024 538.729 576.399 553.682 566.821 564.258C557.244 574.818 547.333 582.295 522.814 588.955C498.296 595.616 478.807 598.382 465.651 598.715C452.484 599.033 439.168 599.033 439.168 599.033" stroke="#0D62B1" stroke-width="3" stroke-miterlimit="10" stroke-linecap="round" stroke-linejoin="round"></path><path d="M267.023 524.274C267.023 524.274 284.23 518.748 302.75 512.898C321.265 507.038 389.795 492.419 406.043 488.503C422.276 484.603 464.832 477.784 481.229 476.809C497.637 475.834 505.922 475.182 505.922 475.182" stroke="#0D62B1" stroke-width="3" stroke-miterlimit="10" stroke-linecap="round" stroke-linejoin="round"></path><path d="M311.034 512.082C311.034 512.082 311.193 525.244 311.193 528.487C311.193 531.746 309.727 541.331 309.727 541.331" stroke="#0D62B1" stroke-width="3" stroke-miterlimit="10" stroke-linecap="round" stroke-linejoin="round"></path><path d="M508.814 475.905C509.86 475.905 519.223 474.463 534.569 479.41C549.914 484.356 558.359 488.79 558.359 488.79" stroke="#0D62B1" stroke-width="3" stroke-miterlimit="10" stroke-linecap="round" stroke-linejoin="round"></path></symbol><symbol id="icon-fr_4" width="1600" height="896" viewBox="0 0 1600 896" fill="none" xmlns="http://www.w3.org/2000/svg"><g clip-path="url(#clip0)"><path fill-rule="evenodd" clip-rule="evenodd" d="M1576.9 398.659L1599 438.83L1572.58 402.152L1550 387.743L1521.66 369.84L1508.21 371.587L1500.53 351.938L1482.75 341.021L1470.74 301.287L1435.2 287.314L1396.29 288.187L1336.72 304.343H1306.38L1283.4 322.246L1278.6 331.852L1268.99 341.021V352.374L1252.18 365.474V386.433L1232.97 396.408L1252.18 421.801V445.817L1273.79 473.326V522.667L1254.1 553.232L1266.59 604.756V614.363L1281.48 642.308L1268.51 651.914L1267.66 653.885L1276.31 654.289L1285.49 648.195L1303.86 650.226L1318.06 654.289L1332.81 648.195V639.055L1347.56 623.313L1346.45 610.364L1384.75 598.075L1393.76 590.052L1394.88 579.896L1404.34 573.295V566.44L1419.99 551.967H1414.36L1406.57 535.464L1385.13 516.929L1399.05 494.586L1386.58 458.407L1373.72 460.056L1361.48 452.947L1337.54 439.998L1335.87 430.858L1325.02 426.541L1316.95 414.608H1307.76L1294.96 402.421L1277.14 406.23L1290.78 400.136L1282.43 387.949L1284.1 375L1286.89 387.949L1292.45 397.089H1296.91L1307.76 408.769L1319.17 413.085L1326.96 425.272L1334.48 426.541L1341.99 430.858V436.443L1354.52 445.33L1375.39 455.994L1385.33 454.774L1385.13 454.216L1389.87 448.377L1414.36 442.029L1411.3 428.319L1420.76 445.33L1395.15 451.17L1404.34 497.887L1389.87 516.929L1414.36 531.402L1420.76 542.573L1438.85 547.651L1473.64 537.749H1505.65L1526.26 546.913L1530.7 545.112L1562.43 516.675L1571.05 518.707L1583.58 501.695L1575.51 514.898L1589.98 518.199L1592.21 522.769L1588.59 518.707L1575.79 516.422L1571.05 522.261L1562.43 518.707L1529.73 550.732L1539.6 567.455L1549.35 574.31L1556.3 582.181L1571.61 596.654L1587.2 606.809L1600 630.168L1584.69 608.841L1571.61 600.462L1555.19 590.052L1547.4 591.068L1542.94 579.642L1532.65 573.295L1525.69 550.19L1505.09 542.065L1482.55 542.573L1448.04 551.967H1430.45L1417.14 562.377L1414.36 567.963L1408.79 573.295V579.896L1399.05 587.513V599.7L1387.92 605.501L1399.05 620.266V634.231L1411.58 650.226V678.917L1400.16 696.69L1407.4 726.65V732.235L1416.03 748.485L1408.51 754.071L1404.9 762.449V768.289L1400.16 772.605L1411.58 782.507L1413.25 790.632L1417.98 793.171L1420.2 799.772L1416.03 811.452L1417.98 801.804L1411.58 794.187L1407.4 790.632L1408.51 784.539L1395.15 772.605L1400.16 766.512L1398.22 761.434L1401.56 754.071L1406.01 745.692L1400.16 732.235L1401.56 721.318L1395.15 694.404L1408.79 681.202L1406.01 651.496L1391.81 634.231V624.582L1380.9 612.73L1354.8 619.504L1348.67 626.867L1352.29 634.231L1338.93 651.496L1335.31 663.937L1321.4 666.983L1289.39 661.905L1281.32 666.983L1262.92 664.804L1262.27 666.324V676.366L1254.1 683.789L1273.79 700.819L1276.68 714.791L1284.84 719.158L1288.69 730.511L1281.48 750.596L1284.84 734.004L1273.79 720.904L1266.59 714.791L1268.51 704.312L1245.45 683.789L1254.1 673.31L1250.74 664.577L1251.26 663.422L1238.46 661.905L1229.27 666.983L1207.56 665.968L1171.1 672.569L1166.37 681.456L1175.84 695.42L1208.68 704.307L1209.79 729.443L1216.75 738.837L1207.56 745.184L1213.97 738.837L1207.56 729.443L1203.95 705.576L1174.72 701.006L1146.05 721.318L1136.04 736.044L1120.73 745.184L1116.55 766.766L1087.33 794.441L1084.82 815.768L1075.36 800.788L1058.66 795.71H1077.59L1088.44 777.937L1103.47 766.766L1104.86 756.356L1113.21 740.868L1130.75 723.095V716.621H1063.95L1058.66 710.146L1045.86 705.83L1030.27 710.146L1021.92 716.621H1013.85L1005.22 724.365H987.132L981.009 740.868L972.659 748.485L969.598 754.578L963.753 757.117L962.64 764.988L966.815 770.828L947.889 791.902L952.898 805.104L949.002 810.182L947.889 817.545L944.827 807.389L935.364 805.104L946.219 796.979L940.096 793.933L944.827 786.57L960.135 768.289L952.898 756.102L942.879 750.262L922.839 748.485L913.933 738.329H900.852L889.441 748.485L863 752.293L889.441 745.946L900.852 734.521L908.645 728.173V724.365H905.862L904.47 709.638L905.862 704.307L904.47 696.182L905.862 688.057L894.729 681.964V675.87L898.069 681.964L908.645 685.772L907.253 698.213L911.707 704.307L908.645 709.638L916.16 728.173L908.645 732.489L916.16 734.521L930.633 744.423H946.219L954.847 745.946V752.293H960.135L967.928 740.868L969.598 736.298L981.009 731.474L984.627 715.732L1002.72 710.146V669.269L1015.24 659.874V653.273L1030.27 647.433L1038.07 636.008L1033.61 628.391L1030.27 617.473L1040.85 613.157L1033.61 617.473L1036.67 628.391L1045.86 634.484L1036.67 649.464L1020.81 653.273L1018.3 665.206L1010.51 671.807V711.416L1021.92 709.638L1027.21 704.307L1047.53 700.498L1056.43 704.307L1071.46 708.115H1133.08L1154.4 689.58L1148 642.355L1154.4 622.043L1166.37 598.431L1146.33 582.435L1154.4 574.818V564.662L1158.02 557.045L1155.52 544.604L1160.25 555.014L1158.02 567.201V574.818L1151.62 580.658L1171.94 589.29L1194.76 592.591L1216.47 587.005L1197.27 594.622H1181.68L1168.6 598.431L1162.75 613.157L1155.52 642.355L1164.7 669.522L1197.27 657.335H1215.36L1227.33 652.003L1255.85 653.334L1256.5 651.914L1264.19 637.505L1254.1 614.363L1256.5 595.587L1245.45 549.302L1268.99 526.596L1264.19 475.509L1239.69 445.817V429.224L1220.85 408.841L1175.8 420.491L1165.23 433.154L1171.48 445.817L1148.42 475.509L1142.18 496.905L1118.16 502.144L1062.92 493.411L1048.98 502.144L975.009 493.411L959.157 502.144L921.689 500.398L858.761 511.75L850.595 527.033L866.927 551.049L923.61 566.331L925.532 609.559L937.541 625.715L921.689 636.632L932.737 625.715L921.689 609.559L915.444 568.515L865.006 560.655L815.529 595.587L798.236 620.912L771.816 636.632L764.61 673.747L714.172 721.341L709.849 758.02L693.517 732.257L664.695 723.524H697.359L716.094 692.959L742.033 673.747L744.435 655.844L758.846 629.209L789.109 598.643V587.509H673.822L664.695 576.374L642.598 568.951L615.698 576.374L601.287 587.509H587.357L572.465 600.826H541.242L530.674 629.209L516.263 642.308L510.979 652.788L500.891 657.154L498.97 670.69L506.175 680.733L473.511 716.975L482.157 739.68L475.432 748.413L473.511 761.076L468.227 743.61L451.894 739.68L470.628 725.708L460.06 720.468L468.227 707.805L494.647 676.366L482.157 655.407L464.864 645.365L430.278 642.308L414.906 624.842H392.329L372.634 642.308L327 648.858L372.634 637.942L392.329 618.292L405.779 607.376V600.826H400.976L398.574 575.501L400.976 566.331L398.574 552.359L400.976 538.386L381.761 527.906V517.427L387.526 527.906L405.779 534.456L403.378 555.852L411.063 566.331L405.779 575.501L418.749 607.376L405.779 614.799L418.749 618.292L443.728 635.322H470.628L485.52 637.942V648.858H494.647L508.097 629.209L510.979 621.349L530.674 613.053L536.918 585.981L568.142 576.374V506.074L589.758 489.918V478.565L615.698 468.522L629.148 448.873L621.462 435.774L615.698 416.998L633.952 409.575L621.462 416.998L626.746 435.774L642.598 446.253L626.746 472.016L599.366 478.565L595.042 499.088L581.592 510.441V578.557L601.287 575.501L610.414 566.331L645.48 559.782L660.852 566.331L686.792 572.881H793.141L829.94 541.006L818.891 459.789L829.94 424.858L850.595 384.25L816.009 356.741L829.94 343.641V326.175L836.184 313.076L831.861 291.68L840.027 309.583L836.184 330.542V343.641L825.136 353.684L860.202 368.53L899.592 374.207L937.06 364.6L903.915 377.7H877.015L854.438 384.25L844.35 409.575L831.861 459.789L847.713 506.511L903.915 485.552H935.139L955.794 476.382L1040.34 480.312L1056.19 469.832L1087.89 473.326L1112.39 480.312L1137.85 469.832V454.113L1163.31 427.041L1161.39 404.772L1227.49 383.638L1243.05 369.84L1244.97 352.374L1261.3 341.021V329.232L1288.33 304.343H1278.6L1265.15 275.961L1228.16 244.086L1252.18 205.661L1230.65 143.441L1208.47 146.277L1187.33 134.051L1146.02 111.782L1143.14 96.0624L1124.4 88.6394L1110.47 68.117H1094.62L1072.52 47.1579L1041.78 53.7076L1065.32 43.2281L1050.91 22.269L1053.79 0L1058.59 22.269L1068.2 37.9883H1075.89L1094.62 58.0741L1114.31 65.4971L1127.76 86.4561L1140.73 88.6394L1153.7 96.0624V105.669L1175.32 120.951L1211.35 139.29L1228.49 137.193L1228.16 136.234L1236.33 126.191L1278.6 115.275L1273.31 91.6959L1289.65 120.951L1245.45 130.994L1261.3 211.337L1236.33 244.086L1278.6 268.975L1289.65 288.187L1320.87 296.92L1380.92 279.891H1436.16L1471.72 295.651L1479.39 292.554L1534.15 243.649L1549.04 247.142L1570.66 217.887L1556.73 240.593L1581.71 246.269L1585.55 254.129L1579.3 247.142L1557.21 243.212L1549.04 253.255L1534.15 247.142L1477.72 302.218L1494.76 330.979L1511.57 342.768L1523.58 356.304L1550 381.193L1576.9 398.659ZM473.511 778.105L475.432 767.626L460.06 771.119L443.728 775.049L419.23 803.867L400.015 816.53L395.692 830.066L386.565 836.616L373.115 849.715L361.586 858.448L368.792 896L366.87 866.308L377.438 849.715L395.692 839.672L413.465 824.827L439.405 816.53L451.894 797.318L470.628 785.528L494.647 797.318L510.979 812.164L526.831 821.77L538.359 834.869V854.518L550.849 889.887L542.683 849.715V819.587L526.831 813.91V803.867L514.341 797.318L506.175 789.458L473.511 778.105ZM1040 152.807L1032.34 138.819L1023.01 132.737L1013.85 124.07L1009.69 119.357L1003.86 115.251L997.954 105.237L1017.52 86.0585L1022.68 88.1871L1025.51 84.6901L1033.17 86.0585L1035.34 88.4912L1034 85.7544L1025.34 83.7778L1030.17 75.8714L1022.68 86.0585L1017.52 84.8421L998.531 101.871L995.873 102.95L983.543 97.462H964.39L943.573 103.392L932.748 100.351L928.917 93.6608L914.262 84.9942L922.922 73.5906L917.426 45.614L932.748 42.117L927.085 31.9298L928.917 40.1404L914.262 43.9415L911.43 47.4386L911.545 47.7724L905.602 48.5029L893.111 42.117L885.617 36.7953V33.4503L881.12 30.8655L876.623 30.1053L871.96 22.807L865.132 20.2222L858.637 13.2281H855.972L852.642 7.75439L850.976 0L849.977 7.75439L854.973 15.0526L846.813 18.7018L857.471 16.4211L865.132 23.7193H870.628L875.458 30.8655L881.953 33.4503L882.952 38.924L897.274 46.6784L904.602 50.9357L912.295 49.9481L919.758 71.614L911.43 84.9942L924.254 96.0936L928.917 105.977H932.29L922.922 114.643V118.749L917.259 122.702L916.593 128.784L911.199 133.588L888.281 140.947L888.947 148.702L880.121 158.129V163.602L871.294 167.251L862.801 164.819L851.809 163.602L846.313 167.251L817.002 165.883L809.841 169.076H799.015L779.53 176.374L774.034 160.105L778.364 142.62L781.862 133.801L789.689 131.52H799.015L810.507 126.959L797.517 130.304L783.86 128.327L771.703 123.158L775.533 119.661V115.099L776.866 107.801L774.034 101.567L775.533 109.018L773.368 113.579V119.661L768.539 124.222L780.529 133.801L773.368 147.942L769.538 160.105L773.368 188.386L760.61 199.485H723.739L714.746 197.205L709.417 194.924L697.259 197.205L694.095 200.398L687.267 201.462V177.743L691.93 173.789L693.429 166.643L702.921 164.363L708.417 155.392L702.921 151.743L701.089 145.205L705.42 142.62L699.091 145.205L701.089 151.743L703.754 156.304L699.091 163.146L690.098 166.643V170.596L682.603 176.222V200.702L671.778 204.047L669.613 213.474L662.785 216.363L661.786 219.099L657.123 225.942H653.958V222.14L648.796 221.228H639.469L630.809 215.298L626.313 214.082L630.809 211.497L626.313 200.398L628.145 197.205L625.48 193.556L626.313 186.105L619.984 183.825L617.986 180.175V183.825L624.647 187.474L623.815 192.339L624.647 197.205L623.815 200.398L624.647 209.216H626.313V211.497L621.65 215.298L614.821 222.14L599 225.942L614.821 223.661L621.65 217.579H629.477L634.806 223.661L646.797 224.725L652.793 228.222L657.123 235.52L647.963 246.468L645.132 250.877L648.796 252.702L642.301 257.567L647.963 258.936L649.795 265.018L650.461 260.608L652.793 257.567L649.795 249.661L661.12 237.041L658.622 233.544L659.288 228.83L662.785 227.31L664.617 223.661L669.613 219.099L673.277 209.216H684.102L689.265 204.579H694.095L699.091 200.702L708.417 198.117L716.078 200.702L719.242 204.579H759.212V208.456L748.72 219.099L743.724 228.374L742.891 234.608L733.898 241.298L727.403 251.942H716.078L726.071 254.982L731.733 263.953L733.232 251.181L750.719 234.608L753.217 221.684L762.377 216.211L768.372 207.392L785.526 195.228L803.012 197.965L805.177 212.257L809.008 217.883L805.177 221.684L810.673 217.883L806.51 212.257L805.844 197.205L786.192 191.883L780.529 183.52L783.361 178.199L805.177 174.246L818.168 174.854L823.664 171.813L849.311 174.854L854.14 171.813L873.293 174.854L881.62 173.029L883.785 165.579L891.779 155.24L889.614 150.83L893.278 146.421L908.897 142.364L915.427 149.462V155.24L923.921 165.579L925.586 183.368L917.426 191.275L921.256 207.392L920.424 213.93L923.921 221.988L921.256 227.006L919.258 231.415L920.424 234.456L917.426 238.105L925.42 245.251L924.754 248.901L927.252 251.029L931.082 255.591L929.917 261.368L932.415 254.374L931.082 250.421L928.251 248.901L927.252 244.035L920.424 238.105L923.255 235.52V232.023L925.42 227.006L929.917 223.661L924.754 213.93V210.585L920.424 192.643L927.252 182V164.819L919.758 155.24V146.877L913.099 138.035L919.758 134.561V127.263L925.586 122.702V118.749L928.917 115.556L930.583 112.211L938.549 105.977H949.069L969.72 100.351L983.21 100.047L995.534 104.912L999.697 118.749L1005.86 122.55L1008.52 129.392L1013.19 128.784L1023.01 135.018L1030.84 140.035L1040 152.807ZM869.129 208.456L868.13 233.544L863.467 235.52L861.468 242.971L853.141 251.029L851.975 255.591L845.314 267.906V279.158L843.648 265.474L849.311 253.462L851.975 248.901L858.637 242.971L861.468 234.608L865.632 232.023L869.129 208.456ZM649.795 270.947L650.461 267.298L645.132 268.515L639.469 269.883L630.976 279.918L624.314 284.327L622.815 289.041L619.651 291.322L614.988 295.883L610.991 298.924L613.489 312L612.823 301.661L616.487 295.883L622.815 292.386L628.977 287.216L637.971 284.327L642.301 277.637L648.796 273.532L657.123 277.637L662.785 282.807L668.281 286.152L672.278 290.713V297.556L676.608 309.871L673.777 295.883V285.392L668.281 283.415V279.918L663.951 277.637L661.12 274.901L649.795 270.947ZM1312.77 764.988L1314.44 723.095L1308.6 762.449L1301.64 766.766L1296.91 780.73L1285.77 790.632L1281.32 798.249L1271.86 818.307L1274.64 841.158V822.369L1285.77 801.804L1287.72 794.187L1301.64 780.73L1304.98 768.289L1312.77 764.988ZM949.002 821.354L947.889 827.447L966.815 834.049L971.546 838.619L978.782 842.427V848.267L987.967 851.568V869.087L992.699 892.445L985.462 871.88V860.454L978.782 852.837L969.598 847.251L960.135 838.619L946.219 831.764L935.364 838.619L928.128 849.79L913.098 854.615L902.8 863.247L892.224 869.087L886.101 878.735L887.214 896L883.039 874.165L889.719 869.087L897.512 861.47L902.8 857.661L905.305 849.79L916.438 842.427L930.633 825.67L940.096 823.385L949.002 821.354Z" fill="white"></path></g><defs><clipPath><rect width="1600" height="896" fill="white"></rect></clipPath></defs></symbol></svg>